<svg width="20" height="20" viewBox="0 0 20 20" fill="none" xmlns="http://www.w3.org/2000/svg">
<g clip-path="url(#clip0_1_144)">
<path d="M10 0C8.02219 0 6.08879 0.58649 4.4443 1.6853C2.79981 2.78412 1.51809 4.3459 0.761209 6.17317C0.00433286 8.00043 -0.193701 10.0111 0.192152 11.9509C0.578004 13.8907 1.53041 15.6725 2.92894 17.0711C4.32746 18.4696 6.10929 19.422 8.0491 19.8079C9.98891 20.1937 11.9996 19.9957 13.8268 19.2388C15.6541 18.4819 17.2159 17.2002 18.3147 15.5557C19.4135 13.9112 20 11.9778 20 10C19.9971 7.34872 18.9426 4.80684 17.0679 2.9321C15.1932 1.05736 12.6513 0.00286757 10 0V0ZM10 17.5C8.51664 17.5 7.0666 17.0601 5.83323 16.236C4.59986 15.4119 3.63857 14.2406 3.07091 12.8701C2.50325 11.4997 2.35473 9.99168 2.64411 8.53682C2.9335 7.08197 3.64781 5.74559 4.6967 4.6967C5.7456 3.64781 7.08197 2.9335 8.53683 2.64411C9.99168 2.35472 11.4997 2.50325 12.8701 3.0709C14.2406 3.63856 15.4119 4.59985 16.236 5.83322C17.0601 7.06659 17.5 8.51664 17.5 10C17.4978 11.9884 16.7069 13.8948 15.3009 15.3009C13.8948 16.7069 11.9885 17.4978 10 17.5Z" fill="#992E9D"/>
<path d="M10.0043 15.8335C10.6947 15.8335 11.2543 15.2739 11.2543 14.5835C11.2543 13.8931 10.6947 13.3335 10.0043 13.3335C9.31398 13.3335 8.75433 13.8931 8.75433 14.5835C8.75433 15.2739 9.31398 15.8335 10.0043 15.8335Z" fill="#992E9D"/>
<path d="M10.631 4.15544C10.1213 4.06405 9.59771 4.08556 9.09719 4.21845C8.59667 4.35134 8.13138 4.59237 7.73411 4.92457C7.33683 5.25677 7.01725 5.67205 6.79786 6.14114C6.57848 6.61024 6.46464 7.12174 6.46436 7.6396C6.46436 7.97112 6.59605 8.28906 6.83047 8.52348C7.06489 8.7579 7.38283 8.8896 7.71435 8.8896C8.04587 8.8896 8.36382 8.7579 8.59824 8.52348C8.83266 8.28906 8.96435 7.97112 8.96435 7.6396C8.96511 7.45621 9.01434 7.27629 9.10707 7.11806C9.19979 6.95984 9.3327 6.82895 9.49232 6.73867C9.65195 6.64838 9.83261 6.60191 10.016 6.60396C10.1994 6.60601 10.3789 6.65652 10.5365 6.75036C10.6941 6.84419 10.824 6.97803 10.9132 7.13828C11.0023 7.29854 11.0475 7.47952 11.0442 7.66288C11.0408 7.84624 10.989 8.02545 10.8941 8.18235C10.7991 8.33924 10.6644 8.46824 10.5035 8.55626C9.98787 8.77222 9.54967 9.1392 9.24654 9.60892C8.94341 10.0786 8.78955 10.6291 8.80518 11.1879C8.80518 11.5194 8.93688 11.8374 9.1713 12.0718C9.40572 12.3062 9.72366 12.4379 10.0552 12.4379C10.3867 12.4379 10.7046 12.3062 10.9391 12.0718C11.1735 11.8374 11.3052 11.5194 11.3052 11.1879C11.3044 11.1271 11.3089 11.0663 11.3185 11.0063C11.4352 10.8997 11.5676 10.8118 11.711 10.7454C12.3512 10.3926 12.8664 9.85022 13.186 9.19282C13.5055 8.53542 13.6137 7.79521 13.4958 7.07384C13.3778 6.35247 13.0394 5.6853 12.5271 5.16395C12.0147 4.64261 11.3536 4.29264 10.6343 4.1621L10.631 4.15544Z" fill="#992E9D"/>
</g>
<defs>
<clipPath id="clip0_1_144">
<rect width="20" height="20" fill="white"/>
</clipPath>
</defs>
</svg>
