<svg width="22" height="22" viewBox="0 0 22 22" fill="none" xmlns="http://www.w3.org/2000/svg">
<path d="M21.0829 0.916379C20.3249 0.147779 19.2195 -0.167351 18.1702 0.085999L4.15819 3.03082C1.49726 3.42458 -0.340637 5.90089 0.0531151 8.56178C0.206191 9.59627 0.688187 10.554 1.42779 11.2934L2.92997 12.7965C3.0003 12.8659 3.03961 12.9608 3.03905 13.0596V15.8312C3.04107 17.5554 4.43834 18.9527 6.1626 18.9547H8.9342C9.03314 18.9547 9.12809 18.9939 9.19816 19.0638L10.7003 20.566C11.6087 21.4803 12.844 21.9949 14.1328 21.9958C14.6648 21.9953 15.1932 21.9083 15.6973 21.7382C17.4369 21.1605 18.701 19.6498 18.9629 17.8356L21.9077 3.86765C22.1723 2.80725 21.8589 1.68592 21.0829 0.916379ZM2.86128 7.17263C3.11037 6.40304 3.78256 5.84732 4.58528 5.74743C4.61767 5.74313 4.64972 5.73763 4.68151 5.73093L16.8916 3.16465L5.7887 14.2611V13.0595C5.79072 12.2306 5.4606 11.4354 4.87218 10.8516L3.3718 9.34941C2.79391 8.78419 2.59491 7.93586 2.86128 7.17263ZM16.2628 17.3169C16.2555 17.3489 16.2509 17.381 16.2463 17.4131C16.0872 18.5741 15.017 19.3862 13.856 19.227C13.3974 19.1641 12.9718 18.953 12.6444 18.6257L11.1431 17.1244C10.559 16.5358 9.76346 16.2057 8.93425 16.2079H7.73267L18.8328 5.10497L16.2628 17.3169Z" fill="#FCF5FE"/>
</svg>
