<svg width="16" height="16" viewBox="0 0 16 16" fill="none" xmlns="http://www.w3.org/2000/svg">
<path d="M6.998 2.5C6.998 3.16304 6.73461 3.79893 6.26577 4.26777C5.79693 4.73661 5.16104 5 4.498 5C3.83496 5 3.19907 4.73661 2.73023 4.26777C2.26139 3.79893 1.998 3.16304 1.998 2.5C1.998 1.83696 2.26139 1.20107 2.73023 0.732233C3.19907 0.263392 3.83496 0 4.498 0C5.16104 0 5.79693 0.263392 6.26577 0.732233C6.73461 1.20107 6.998 1.83696 6.998 2.5ZM11.223 6.553C11.1292 6.50602 11.023 6.48973 10.9195 6.50642C10.8159 6.52311 10.7203 6.57194 10.646 6.646L6.936 11.356L4.276 8.584C4.17996 8.52006 4.06476 8.4913 3.94994 8.5026C3.83512 8.5139 3.72773 8.56456 3.646 8.646L0 13V15C0 15.2652 0.105357 15.5196 0.292893 15.7071C0.48043 15.8946 0.734784 16 1 16H15C15.1313 16 15.2614 15.9741 15.3827 15.9239C15.504 15.8736 15.6142 15.8 15.7071 15.7071C15.8 15.6142 15.8736 15.504 15.9239 15.3827C15.9741 15.2614 16 15.1313 16 15V10.5L11.223 6.553Z" fill="black"/>
</svg>
