<svg width="417" height="417" viewBox="0 0 417 417" fill="none" xmlns="http://www.w3.org/2000/svg">
<path d="M67.971 102.206H27.306V182.812H67.971V102.206Z" fill="#FFF4C5"/>
<path d="M113.472 102.206H69.5339V182.812H113.472V102.206Z" fill="#FFF4C5"/>
<path d="M113.472 188.444H69.5339V266.327H113.472V188.444Z" fill="#FFF4C5"/>
<path d="M119.103 100.811H165.374V29.3068H166.938V100.811H204.594V27.7205H119.103V100.811Z" fill="#FFF4C5"/>
<path d="M204.594 102.206H166.938V182.812H204.594V102.206Z" fill="#FFF4C5"/>
<path d="M204.594 188.444H166.938V266.327H204.594V188.444Z" fill="#FFF4C5"/>
<path d="M67.971 188.444H27.306V266.327H67.971V188.444Z" fill="#FFF4C5"/>
<path d="M165.374 188.444H119.103V266.327H165.374V188.444Z" fill="#FFF4C5"/>
<path d="M67.971 267.721H27.306V337.903H67.971V267.721Z" fill="#FFF4C5"/>
<path d="M204.594 267.721H166.938V337.903H204.594V267.721Z" fill="#FFF4C5"/>
<path d="M67.971 100.811V29.3068H69.5339V100.811H113.472V27.7205H27.306V100.811H67.971Z" fill="#FFF4C5"/>
<path d="M165.374 267.721H119.103V337.903H165.374V267.721Z" fill="#FFF4C5"/>
<path d="M113.472 267.721H69.5339V337.903H113.472V267.721Z" fill="#FFF4C5"/>
<path d="M165.374 102.206H119.103V182.812H165.374V102.206Z" fill="#FFF4C5"/>
<path d="M372.376 39.7451H365.596V185.53H372.376V39.7451Z" fill="#FFE985"/>
<path d="M267.238 40.9703V185.635C267.238 185.689 267.281 185.733 267.335 185.733H364.467C364.521 185.733 364.565 185.688 364.565 185.635V40.9703C364.565 40.916 364.521 40.8718 364.467 40.8718H267.335C267.281 40.8727 267.238 40.9169 267.238 40.9703Z" fill="#FFF4C5"/>
<path d="M365.596 186.86H266.208C266.154 186.86 266.11 186.817 266.11 186.763V39.8427C266.11 39.7885 266.154 39.7451 266.208 39.7451H365.596C365.65 39.7451 365.693 39.7885 365.693 39.8427V186.763C365.693 186.817 365.649 186.86 365.596 186.86ZM268.463 184.606H363.34C363.394 184.606 363.437 184.562 363.437 184.508V42.0978C363.437 42.0436 363.394 42.0002 363.34 42.0002H268.463C268.409 42.0002 268.365 42.0444 268.365 42.0978V184.507C268.365 184.562 268.409 184.606 268.463 184.606Z" fill="#FFF4C5"/>
<path d="M277.037 49.9074V176.603C277.037 176.657 277.081 176.7 277.135 176.7H354.839C354.893 176.7 354.936 176.656 354.936 176.603V49.9074C354.936 49.8532 354.892 49.8098 354.839 49.8098H277.135C277.081 49.809 277.037 49.8532 277.037 49.9074Z" fill="white"/>
<path d="M337.718 137.05H294.085C294.055 137.05 294.032 137.025 294.032 136.996V85.8369C294.032 85.8069 294.056 85.7836 294.085 85.7836H337.717C337.747 85.7836 337.771 85.8078 337.771 85.8369V136.996C337.772 137.025 337.747 137.05 337.718 137.05Z" fill="#FFF4C5"/>
<path d="M334.309 130.775C334.365 130.94 332.206 131.885 328.099 131.404C326.076 131.13 323.559 130.403 321.118 128.614C318.73 126.826 316.462 123.94 315.694 120.083C314.896 116.257 316.176 111.487 319.842 108.421C320.753 107.66 321.813 107.019 322.987 106.578C324.236 106.114 325.584 105.961 326.922 106.124C328.253 106.287 329.663 106.75 330.856 107.842C332.061 108.935 332.721 110.782 332.407 112.425C332.123 114.084 331.219 115.355 330.247 116.359C329.245 117.382 328.11 118.139 326.952 118.786C324.6 120.085 321.91 120.9 319.092 121.031C316.285 121.165 313.319 120.589 310.714 119.124C308.135 117.676 305.929 115.48 304.549 112.733C303.151 110.02 302.706 106.728 303.443 103.784C304.153 100.851 305.819 98.2277 308.161 96.4096C309.336 95.4988 310.664 94.8266 312.115 94.413C313.576 94.0385 315.081 93.9676 316.566 94.2745C318.036 94.5831 319.538 95.3062 320.607 96.5539C321.692 97.7907 322.177 99.4061 322.191 100.872C322.213 102.346 321.812 103.783 321.137 104.986C320.474 106.192 319.582 107.171 318.642 107.985C316.75 109.587 314.627 110.641 312.446 111.277C310.266 111.904 308.032 112.069 305.927 111.78C303.828 111.484 301.851 110.711 300.253 109.607C297.029 107.419 295.167 104.095 294.835 101.024C294.47 97.8966 295.614 95.332 296.842 93.6657C298.106 91.9669 299.558 91.0978 300.555 90.6992C301.577 90.3122 302.159 90.3255 302.185 90.4231C302.227 90.5624 301.722 90.7876 300.894 91.3405C300.082 91.9035 298.936 92.8542 298.007 94.4438C297.098 96.0034 296.349 98.2661 296.824 100.73C297.256 103.184 298.935 105.822 301.642 107.477C304.292 109.161 308.01 109.594 311.581 108.423C313.35 107.853 315.113 106.899 316.554 105.609C317.984 104.327 318.957 102.676 318.877 100.949C318.831 99.2177 317.74 97.9967 315.883 97.6414C314.978 97.4646 313.963 97.5221 313.024 97.7757C312.091 98.0609 311.142 98.5371 310.326 99.1893C308.675 100.488 307.427 102.459 306.923 104.612C306.406 106.763 306.714 109.044 307.758 111.111C308.785 113.174 310.498 114.892 312.464 116.004C314.421 117.119 316.698 117.594 318.939 117.51C321.183 117.429 323.385 116.796 325.307 115.769C326.278 115.245 327.173 114.653 327.848 113.978C328.539 113.301 329.021 112.529 329.137 111.876C329.263 111.216 329.062 110.642 328.616 110.186C328.147 109.721 327.351 109.37 326.51 109.258C325.665 109.13 324.791 109.21 324.031 109.469C323.194 109.756 322.414 110.193 321.72 110.735C320.332 111.823 319.289 113.312 318.706 114.886C318.113 116.464 317.973 118.097 318.199 119.653C318.661 122.781 320.423 125.369 322.366 127.037C324.348 128.713 326.536 129.575 328.357 130.026C332.06 130.889 334.28 130.463 334.309 130.775Z" fill="#FFE985"/>
<path d="M404.26 380.296C404.26 380.417 315.862 380.513 206.841 380.513C97.7832 380.513 9.40335 380.416 9.40335 380.296C9.40335 380.176 97.7832 380.08 206.841 380.08C315.862 380.08 404.26 380.177 404.26 380.296Z" fill="#263238"/>
<path d="M328.219 211.381L331.815 205.26C330.518 201.438 330.226 197.221 331.192 192.997C333.969 180.85 346.068 173.254 358.216 176.032C370.363 178.809 377.958 190.908 375.181 203.055C372.404 215.201 360.305 222.797 348.157 220.02C343.085 218.86 338.812 216.072 335.751 212.336L335.756 212.348L328.219 211.381Z" fill="white"/>
<path d="M328.219 211.381C328.219 211.381 328.367 211.41 328.684 211.457C329.024 211.506 329.495 211.573 330.106 211.661C331.406 211.842 333.293 212.104 335.743 212.445C335.796 212.452 335.845 212.415 335.853 212.361C335.855 212.342 335.852 212.322 335.844 212.306C335.844 212.306 335.841 212.299 335.839 212.295L335.673 212.398C337.524 214.677 340.432 217.345 344.642 219.068C346.729 219.945 349.135 220.514 351.726 220.688C354.314 220.865 357.103 220.606 359.873 219.755C362.641 218.91 365.384 217.475 367.805 215.448C370.226 213.427 372.318 210.81 373.772 207.756C376.713 201.686 376.816 193.74 373.215 187.204C371.421 183.905 368.877 181.08 365.851 179.107C362.848 177.104 359.451 175.876 356.062 175.433C352.666 174.995 349.294 175.381 346.263 176.359C343.227 177.338 340.53 178.917 338.325 180.829C333.894 184.678 331.518 189.734 330.804 194.189C330.048 198.684 330.772 202.554 331.724 205.29L331.733 205.211C330.586 207.213 329.701 208.759 329.091 209.825C328.808 210.326 328.588 210.714 328.429 210.994C328.282 211.256 328.219 211.381 328.219 211.381C328.219 211.381 328.312 211.241 328.475 210.975C328.646 210.694 328.882 210.306 329.188 209.804C329.814 208.765 330.722 207.259 331.898 205.307C331.913 205.283 331.914 205.253 331.906 205.228C330.998 202.502 330.321 198.67 331.098 194.239C331.834 189.846 334.203 184.883 338.574 181.116C340.748 179.244 343.405 177.702 346.389 176.75C349.368 175.798 352.677 175.427 356.008 175.862C359.332 176.304 362.662 177.513 365.603 179.478C368.568 181.414 371.059 184.186 372.818 187.419C376.347 193.826 376.253 201.61 373.38 207.571C371.96 210.568 369.913 213.14 367.541 215.132C365.17 217.129 362.48 218.548 359.762 219.39C357.041 220.237 354.298 220.505 351.749 220.344C349.197 220.186 346.82 219.641 344.756 218.789C340.591 217.119 337.69 214.508 335.826 212.273C335.792 212.23 335.73 212.225 335.687 212.258C335.652 212.286 335.642 212.336 335.66 212.376C335.662 212.38 335.665 212.387 335.665 212.387L335.767 212.249C333.341 211.964 331.471 211.745 330.184 211.595C329.558 211.524 329.076 211.47 328.728 211.431C328.399 211.395 328.219 211.381 328.219 211.381Z" fill="#263238"/>
<path d="M345.658 193.406H349.09C349.09 193.406 349.09 190.525 352.084 190.473C353.639 190.446 354.445 191.465 354.773 192.245C355.153 193.152 355.038 194.184 354.528 195.025C353.946 195.985 352.671 196.857 350.358 196.45V204.187H353.752V199.655C353.752 199.655 358.511 198.424 358.511 193.179C358.511 188.161 354.01 186.996 352.085 186.996C350.612 186.996 345.594 187.352 345.658 193.406Z" fill="#263238"/>
<path d="M353.793 205.781H350.349V208.997H353.793V205.781Z" fill="#263238"/>
<path d="M377.056 254.894C374.729 243.302 363.157 236.607 352.278 239.739C341.626 242.807 335.507 254.462 339.047 264.967C340.233 268.487 342.318 271.449 344.958 273.688C345.054 273.77 345.151 273.842 345.255 273.913C345.264 273.919 345.273 273.925 345.282 273.931C349.897 277.081 355.504 278.613 361.044 277.891C362.901 277.649 364.687 277.181 366.254 276.435C374.288 272.615 378.808 263.616 377.056 254.894Z" fill="white"/>
<path d="M377.056 254.894C377.064 254.892 377.087 254.997 377.127 255.205C377.168 255.434 377.223 255.739 377.293 256.127C377.425 256.94 377.528 258.157 377.484 259.725C377.392 261.288 377.119 263.209 376.376 265.316C375.629 267.411 374.445 269.718 372.579 271.831C371.654 272.892 370.56 273.892 369.324 274.808C368.058 275.674 366.692 276.527 365.127 277.105C362.004 278.238 358.37 278.559 354.693 277.965C352.857 277.654 351.009 277.125 349.222 276.342C348.327 275.958 347.447 275.512 346.59 275.006C346.158 274.76 345.739 274.487 345.319 274.211C344.886 273.934 344.504 273.58 344.136 273.241C341.159 270.489 338.937 266.662 338.179 262.413C337.743 260.3 337.751 258.136 338.042 256.065C338.15 255.019 338.443 254.015 338.698 253.016C338.87 252.529 339.041 252.044 339.211 251.561C339.37 251.073 339.626 250.628 339.827 250.162C340.71 248.339 341.807 246.645 343.152 245.225L343.638 244.681L344.172 244.188C344.532 243.867 344.867 243.519 345.243 243.225C346.007 242.652 346.743 242.058 347.564 241.609C350.751 239.643 354.335 238.83 357.636 238.815C358.466 238.765 359.275 238.895 360.071 238.953C360.866 239.031 361.629 239.234 362.386 239.364C363.119 239.589 363.85 239.781 364.541 240.034C365.214 240.332 365.902 240.56 366.52 240.898C369.037 242.163 371.028 243.817 372.51 245.482C373.206 246.354 373.881 247.147 374.356 247.979C374.899 248.768 375.261 249.564 375.604 250.269C375.79 250.615 375.927 250.959 376.036 251.289C376.154 251.615 376.265 251.921 376.368 252.205C376.595 252.765 376.686 253.27 376.787 253.669C376.876 254.053 376.946 254.355 376.999 254.582C377.045 254.786 377.064 254.892 377.056 254.894C377.049 254.895 377.015 254.792 376.955 254.589C376.893 254.366 376.809 254.069 376.703 253.69C376.589 253.297 376.486 252.798 376.247 252.246C376.138 251.966 376.022 251.665 375.899 251.343C375.785 251.017 375.642 250.68 375.453 250.339C375.1 249.646 374.731 248.863 374.183 248.09C373.705 247.273 373.026 246.496 372.331 245.643C370.85 244.013 368.872 242.4 366.385 241.173C365.776 240.843 365.096 240.625 364.432 240.335C363.751 240.091 363.031 239.907 362.309 239.689C361.564 239.566 360.813 239.371 360.032 239.298C359.249 239.246 358.454 239.121 357.64 239.175C354.4 239.206 350.888 240.017 347.774 241.952C346.97 242.392 346.251 242.978 345.504 243.541C345.136 243.829 344.809 244.171 344.457 244.486L343.936 244.97L343.461 245.505C342.147 246.897 341.076 248.56 340.214 250.347C340.018 250.803 339.766 251.239 339.611 251.717C339.446 252.19 339.279 252.664 339.111 253.142C338.863 254.12 338.576 255.102 338.471 256.126C338.189 258.153 338.181 260.267 338.607 262.333C339.347 266.487 341.518 270.233 344.428 272.929C344.797 273.269 345.152 273.6 345.558 273.861C345.969 274.132 346.38 274.4 346.805 274.644C347.645 275.142 348.509 275.584 349.389 275.962C351.143 276.735 352.957 277.259 354.759 277.57C358.366 278.167 361.946 277.862 365.003 276.767C366.528 276.213 367.882 275.378 369.13 274.536C370.349 273.644 371.431 272.667 372.349 271.629C374.202 269.561 375.389 267.296 376.148 265.235C376.905 263.161 377.199 261.265 377.317 259.717C377.386 258.163 377.312 256.952 377.208 256.14C377.156 255.75 377.116 255.443 377.086 255.214C377.059 255.003 377.049 254.895 377.056 254.894Z" fill="#263238"/>
<path d="M351.272 255.148H354.268C354.268 255.148 354.268 252.632 356.883 252.587C358.241 252.564 358.944 253.453 359.23 254.135C359.562 254.926 359.462 255.828 359.017 256.562C358.509 257.4 357.395 258.161 355.376 257.805V264.561H358.339V260.603C358.339 260.603 362.495 259.529 362.495 254.95C362.495 250.568 358.565 249.55 356.883 249.55C355.597 249.551 351.215 249.862 351.272 255.148Z" fill="#263238"/>
<path d="M358.376 265.954H355.368V268.763H358.376V265.954Z" fill="#263238"/>
<path d="M334.519 258.518C334.519 260.722 332.733 262.507 330.53 262.507C328.327 262.507 326.541 260.721 326.541 258.518C326.541 256.315 328.327 254.529 330.53 254.529C332.733 254.529 334.519 256.315 334.519 258.518Z" fill="white"/>
<path d="M334.519 258.518C334.477 258.52 334.482 258.163 334.312 257.565C334.145 256.978 333.737 256.123 332.85 255.47C331.994 254.815 330.591 254.453 329.239 254.96C327.898 255.427 326.743 256.854 326.758 258.518C326.743 260.184 327.898 261.612 329.239 262.078C330.592 262.586 331.994 262.224 332.85 261.568C333.737 260.914 334.144 260.06 334.312 259.473C334.482 258.874 334.477 258.517 334.519 258.518C334.534 258.518 334.544 258.606 334.55 258.775C334.559 258.945 334.542 259.196 334.477 259.512C334.352 260.136 333.969 261.072 333.037 261.811C332.137 262.551 330.608 262.993 329.103 262.453C327.611 261.962 326.306 260.376 326.324 258.517C326.307 256.659 327.612 255.075 329.103 254.584C330.608 254.044 332.137 254.485 333.037 255.226C333.969 255.965 334.352 256.9 334.477 257.524C334.542 257.841 334.559 258.093 334.55 258.262C334.544 258.431 334.534 258.518 334.519 258.518Z" fill="#263238"/>
<path d="M340.054 146.193C337.655 134.241 325.724 127.338 314.507 130.569C303.524 133.731 297.216 145.747 300.865 156.579C302.088 160.208 304.238 163.262 306.96 165.572C307.06 165.656 307.159 165.731 307.266 165.804C307.276 165.81 307.285 165.817 307.294 165.823C312.052 169.071 317.833 170.65 323.545 169.906C325.459 169.656 327.3 169.173 328.916 168.405C337.2 164.465 341.86 155.186 340.054 146.193Z" fill="white"/>
<path d="M340.054 146.193C340.062 146.191 340.086 146.299 340.127 146.513C340.169 146.748 340.225 147.063 340.297 147.464C340.432 148.302 340.538 149.556 340.492 151.173C340.396 152.785 340.115 154.764 339.348 156.936C338.577 159.096 337.357 161.473 335.433 163.652C334.48 164.745 333.352 165.776 332.079 166.719C330.774 167.611 329.365 168.491 327.752 169.086C324.534 170.254 320.787 170.585 316.997 169.972C315.104 169.651 313.2 169.105 311.359 168.299C310.436 167.903 309.528 167.443 308.646 166.922C308.201 166.668 307.769 166.387 307.336 166.103C306.889 165.818 306.496 165.452 306.116 165.103C303.047 162.266 300.757 158.322 299.976 153.943C299.528 151.765 299.536 149.535 299.836 147.4C299.947 146.323 300.249 145.288 300.512 144.258C300.689 143.756 300.865 143.256 301.041 142.758C301.204 142.255 301.468 141.797 301.676 141.317C302.586 139.438 303.717 137.691 305.103 136.229L305.604 135.667L306.154 135.159C306.525 134.828 306.87 134.47 307.258 134.166C308.046 133.576 308.804 132.963 309.652 132.501C312.936 130.475 316.63 129.636 320.032 129.62C320.887 129.569 321.721 129.702 322.543 129.761C323.363 129.842 324.148 130.051 324.928 130.185C325.684 130.417 326.438 130.615 327.15 130.875C327.844 131.182 328.553 131.417 329.19 131.765C331.785 133.068 333.838 134.774 335.366 136.49C336.083 137.388 336.779 138.205 337.269 139.064C337.828 139.877 338.201 140.697 338.556 141.424C338.747 141.781 338.889 142.134 339.002 142.476C339.124 142.811 339.237 143.126 339.344 143.42C339.579 143.997 339.672 144.517 339.777 144.929C339.869 145.326 339.942 145.637 339.995 145.87C340.041 146.083 340.061 146.192 340.054 146.193C340.047 146.194 340.012 146.088 339.951 145.879C339.887 145.65 339.801 145.343 339.691 144.952C339.573 144.546 339.467 144.031 339.22 143.462C339.109 143.173 338.989 142.863 338.862 142.531C338.743 142.195 338.597 141.847 338.401 141.496C338.038 140.781 337.657 139.974 337.093 139.175C336.599 138.332 335.899 137.532 335.183 136.652C333.656 134.971 331.618 133.307 329.052 132.041C328.423 131.701 327.723 131.475 327.038 131.177C326.336 130.925 325.594 130.735 324.848 130.51C324.08 130.383 323.306 130.182 322.5 130.107C321.693 130.053 320.873 129.924 320.033 129.98C316.691 130.011 313.07 130.847 309.858 132.843C309.029 133.297 308.287 133.901 307.517 134.481C307.138 134.779 306.8 135.131 306.437 135.456L305.9 135.955L305.41 136.507C304.055 137.942 302.95 139.657 302.061 141.499C301.858 141.969 301.599 142.419 301.44 142.912C301.268 143.4 301.097 143.889 300.924 144.381C300.668 145.39 300.373 146.404 300.264 147.459C299.972 149.55 299.965 151.73 300.404 153.861C301.167 158.146 303.407 162.009 306.407 164.79C306.789 165.141 307.154 165.482 307.573 165.751C307.998 166.031 308.422 166.308 308.859 166.558C309.726 167.073 310.617 167.527 311.525 167.918C313.334 168.715 315.204 169.255 317.063 169.576C320.783 170.191 324.475 169.877 327.628 168.747C329.2 168.176 330.597 167.315 331.883 166.446C333.14 165.526 334.256 164.519 335.202 163.448C337.113 161.316 338.336 158.98 339.119 156.854C339.899 154.715 340.202 152.76 340.323 151.163C340.394 149.561 340.316 148.313 340.209 147.475C340.156 147.072 340.114 146.756 340.083 146.52C340.057 146.306 340.047 146.194 340.054 146.193Z" fill="#263238"/>
<path d="M313.47 146.456H316.559C316.559 146.456 316.559 143.863 319.254 143.816C320.655 143.792 321.38 144.709 321.675 145.411C322.018 146.227 321.914 147.157 321.455 147.913C320.932 148.777 319.783 149.563 317.701 149.196V156.162H320.756V152.082C320.756 152.082 325.04 150.974 325.04 146.252C325.04 141.734 320.988 140.685 319.254 140.685C317.929 140.685 313.411 141.005 313.47 146.456Z" fill="#263238"/>
<path d="M320.793 157.597H317.693V160.492H320.793V157.597Z" fill="#263238"/>
<path d="M306.536 173.552C306.536 175.824 304.694 177.665 302.423 177.665C300.151 177.665 298.309 175.824 298.309 173.552C298.309 171.28 300.151 169.439 302.423 169.439C304.694 169.439 306.536 171.28 306.536 173.552Z" fill="white"/>
<path d="M306.536 173.552C306.493 173.554 306.5 173.186 306.325 172.569C306.152 171.962 305.733 171.08 304.818 170.405C303.934 169.728 302.486 169.354 301.09 169.877C299.705 170.359 298.511 171.832 298.527 173.552C298.511 175.272 299.705 176.746 301.09 177.228C302.487 177.751 303.935 177.377 304.819 176.7C305.733 176.025 306.153 175.142 306.326 174.536C306.5 173.918 306.493 173.55 306.536 173.552C306.551 173.552 306.561 173.642 306.566 173.817C306.574 173.992 306.558 174.251 306.489 174.577C306.361 175.22 305.965 176.182 305.005 176.944C304.078 177.705 302.503 178.16 300.954 177.604C299.419 177.097 298.074 175.466 298.093 173.552C298.076 171.639 299.419 170.008 300.954 169.501C302.503 168.945 304.078 169.4 305.005 170.161C305.965 170.922 306.361 171.885 306.489 172.528C306.558 172.854 306.575 173.113 306.566 173.288C306.561 173.462 306.551 173.552 306.536 173.552Z" fill="#263238"/>
<path d="M143.874 111.698H88.0262C79.9739 111.698 73.4462 118.225 73.4462 126.278V153.853C73.4462 161.905 79.9739 168.433 88.0262 168.433H129.563L136.737 180.329L143.45 168.433H143.874C151.926 168.433 158.454 161.905 158.454 153.853V126.278C158.454 118.225 151.926 111.698 143.874 111.698Z" fill="white"/>
<path d="M143.874 111.698C143.874 111.698 143.99 111.693 144.219 111.699C144.46 111.708 144.799 111.72 145.241 111.736C145.69 111.777 146.244 111.864 146.901 111.97C147.546 112.131 148.303 112.294 149.115 112.621C150.735 113.243 152.688 114.29 154.446 116.126C155.339 117.027 156.136 118.144 156.846 119.41C157.534 120.691 158.047 122.165 158.339 123.767C158.658 125.379 158.561 127.105 158.581 128.882C158.584 130.669 158.588 132.538 158.593 134.484C158.599 138.379 158.606 142.586 158.613 147.076C158.613 149.322 158.614 151.639 158.614 154.021C158.569 156.425 157.974 158.913 156.707 161.123C156.085 162.234 155.29 163.258 154.392 164.202C153.453 165.1 152.448 165.975 151.273 166.617C150.118 167.281 148.868 167.827 147.54 168.144C146.885 168.344 146.2 168.417 145.52 168.526C144.836 168.58 144.134 168.626 143.45 168.625L143.617 168.527C141.501 172.284 139.239 176.3 136.914 180.428L136.743 180.731L136.564 180.433C134.293 176.673 131.865 172.651 129.383 168.541L129.563 168.643C118.636 168.646 106.934 168.648 94.8642 168.651C92.5148 168.648 90.1796 168.645 87.8594 168.642C85.5058 168.607 83.1823 168.011 81.1248 166.938C77.0141 164.768 74.0809 160.648 73.4337 156.188L73.3086 155.356L73.2661 154.518C73.2269 153.956 73.2319 153.408 73.2335 152.86C73.2344 151.762 73.2344 150.67 73.2352 149.584C73.236 147.41 73.2369 145.257 73.2385 143.127C73.241 138.866 73.2435 134.696 73.246 130.626C73.2469 129.609 73.2477 128.598 73.2486 127.593C73.2385 126.594 73.2569 125.582 73.3553 124.58C73.5838 122.584 74.2277 120.666 75.1984 118.973C77.135 115.57 80.3801 113.123 83.8987 112.115C84.3441 112.009 84.7811 111.87 85.2273 111.793C85.676 111.727 86.123 111.66 86.5684 111.595C87.4691 111.54 88.3573 111.507 89.2272 111.524C90.9727 111.527 92.6866 111.528 94.3663 111.531C97.7256 111.536 100.95 111.54 104.027 111.545C116.33 111.574 126.287 111.598 133.182 111.614C136.616 111.632 139.285 111.646 141.109 111.655C142.006 111.664 142.693 111.672 143.17 111.677C143.636 111.683 143.874 111.698 143.874 111.698C143.874 111.698 143.636 111.713 143.172 111.72C142.696 111.725 142.008 111.733 141.11 111.742C139.286 111.751 136.618 111.765 133.184 111.783C126.288 111.799 116.331 111.823 104.029 111.852C100.952 111.856 97.7273 111.861 94.3679 111.866C92.6883 111.869 90.9744 111.87 89.2288 111.873C88.7926 111.875 88.3548 111.878 87.9144 111.88C87.4799 111.903 87.0429 111.925 86.6042 111.948C86.1697 112.013 85.7335 112.079 85.2957 112.144C84.8595 112.221 84.4342 112.356 83.9996 112.461C80.5694 113.452 77.411 115.844 75.5304 119.163C74.5871 120.813 73.9641 122.681 73.7439 124.625C73.6505 125.596 73.633 126.584 73.6439 127.593C73.6447 128.597 73.6455 129.609 73.6464 130.626C73.6489 134.696 73.6514 138.866 73.6539 143.127C73.6547 145.257 73.6555 147.41 73.6564 149.584C73.6572 150.67 73.6572 151.763 73.658 152.86C73.6564 153.408 73.6522 153.96 73.6914 154.499L73.7323 155.314L73.8549 156.122C74.4854 160.452 77.336 164.451 81.3275 166.556C83.3258 167.597 85.5792 168.175 87.8652 168.209C90.1838 168.212 92.5173 168.214 94.865 168.218C106.934 168.22 118.637 168.223 129.564 168.225H129.682L129.743 168.327C132.221 172.44 134.644 176.464 136.911 180.227L136.561 180.232C138.892 176.107 141.16 172.095 143.282 168.34L143.338 168.242L143.451 168.243C144.14 168.245 144.807 168.2 145.479 168.15C146.142 168.044 146.809 167.975 147.447 167.782C148.742 167.476 149.961 166.945 151.087 166.3C152.235 165.677 153.217 164.825 154.134 163.951C155.011 163.031 155.79 162.035 156.399 160.951C157.641 158.797 158.227 156.371 158.278 154.021C158.284 151.64 158.291 149.324 158.297 147.079C158.304 142.59 158.311 138.382 158.317 134.488C158.322 132.541 158.326 130.672 158.329 128.886C158.317 127.098 158.421 125.388 158.115 123.809C157.835 122.23 157.339 120.774 156.668 119.507C155.976 118.255 155.197 117.147 154.32 116.25C152.595 114.423 150.672 113.371 149.073 112.735C148.271 112.402 147.523 112.231 146.883 112.061C146.233 111.946 145.681 111.85 145.236 111.799C144.796 111.77 144.459 111.749 144.219 111.733C143.99 111.713 143.874 111.698 143.874 111.698Z" fill="#263238"/>
<path d="M146.77 126.679C146.77 126.799 132.958 126.896 115.925 126.896C98.8857 126.896 85.0772 126.798 85.0772 126.679C85.0772 126.56 98.8857 126.462 115.925 126.462C132.959 126.461 146.77 126.559 146.77 126.679Z" fill="#263238"/>
<path d="M146.77 133.372C146.77 133.492 132.958 133.588 115.925 133.588C98.8857 133.588 85.0772 133.491 85.0772 133.372C85.0772 133.252 98.8857 133.155 115.925 133.155C132.959 133.155 146.77 133.252 146.77 133.372Z" fill="#263238"/>
<path d="M146.77 140.065C146.77 140.185 132.958 140.282 115.925 140.282C98.8857 140.282 85.0772 140.185 85.0772 140.065C85.0772 139.946 98.8857 139.848 115.925 139.848C132.959 139.848 146.77 139.945 146.77 140.065Z" fill="#263238"/>
<path d="M146.77 146.758C146.77 146.878 132.958 146.975 115.925 146.975C98.8857 146.975 85.0772 146.877 85.0772 146.758C85.0772 146.639 98.8857 146.541 115.925 146.541C132.959 146.541 146.77 146.639 146.77 146.758Z" fill="#263238"/>
<path d="M146.77 153.452C146.77 153.572 132.958 153.669 115.925 153.669C98.8857 153.669 85.0772 153.571 85.0772 153.452C85.0772 153.332 98.8857 153.235 115.925 153.235C132.959 153.235 146.77 153.332 146.77 153.452Z" fill="#263238"/>
<path d="M187.392 58.4776H124.364C118.294 58.4776 113.374 63.3982 113.374 69.4672V91.6341C113.374 97.7039 118.295 102.624 124.364 102.624H169.49L176.665 114.52L183.377 102.624H187.391C193.461 102.624 198.381 97.7031 198.381 91.6341V69.4672C198.383 63.3982 193.462 58.4776 187.392 58.4776Z" fill="white"/>
<path d="M187.392 58.4776C187.392 58.4776 187.769 58.4768 188.503 58.5051C189.225 58.6052 190.327 58.7203 191.649 59.2741C192.969 59.8028 194.496 60.7744 195.861 62.3407C196.52 63.1388 197.137 64.0787 197.614 65.1721C198.073 66.2713 198.382 67.5165 198.459 68.8517C198.537 74.1651 198.507 80.6036 198.534 88.0087C198.535 88.9344 198.537 89.8743 198.539 90.8293C198.553 91.7767 198.517 92.7758 198.336 93.755C197.949 95.7073 197.039 97.6397 195.595 99.1826C194.885 99.9616 194.057 100.657 193.121 101.203C192.196 101.763 191.177 102.205 190.096 102.459C189.564 102.62 189.004 102.669 188.45 102.75C187.889 102.78 187.323 102.816 186.768 102.806C185.65 102.806 184.521 102.808 183.379 102.809L183.54 102.715C181.418 106.483 179.167 110.481 176.839 114.617L176.673 114.912L176.498 114.622C174.223 110.856 171.802 106.847 169.315 102.73L169.492 102.831C157.59 102.834 144.641 102.837 131.203 102.841C129.019 102.841 126.847 102.841 124.691 102.841C122.508 102.878 120.292 102.312 118.462 101.146C116.617 100.009 115.13 98.3253 114.232 96.3904C113.262 94.4747 113.1 92.2546 113.163 90.223C113.165 86.1038 113.166 82.0573 113.168 78.0941C113.169 76.1125 113.17 74.1518 113.171 72.2136C113.175 71.2436 113.177 70.2795 113.18 69.3204C113.214 68.3471 113.32 67.3755 113.598 66.4506C114.093 64.5825 115.142 62.9203 116.441 61.5742C117.779 60.2615 119.41 59.2757 121.16 58.7578C122.039 58.5201 122.932 58.3316 123.832 58.315C124.732 58.2624 125.597 58.3016 126.47 58.2908C128.21 58.2924 129.921 58.2941 131.604 58.2966C138.336 58.3058 144.606 58.315 150.333 58.3233C161.774 58.3525 171.035 58.3758 177.451 58.3925C180.644 58.41 183.125 58.4242 184.824 58.4334C185.658 58.4426 186.296 58.4501 186.741 58.4551C187.171 58.4626 187.392 58.4776 187.392 58.4776C187.392 58.4776 187.171 58.4926 186.739 58.5001C186.295 58.5051 185.656 58.5126 184.822 58.5218C183.123 58.531 180.642 58.5451 177.449 58.5627C171.033 58.5793 161.773 58.6027 150.331 58.6319C144.605 58.6402 138.334 58.6486 131.603 58.6586C129.92 58.6602 128.207 58.6619 126.469 58.6644C124.724 58.6677 122.962 58.5943 121.269 59.1256C119.58 59.6293 118.008 60.5843 116.717 61.8528C115.467 63.1547 114.456 64.7593 113.984 66.5607C113.447 68.3488 113.601 70.2728 113.579 72.2152C113.58 74.1534 113.582 76.1142 113.582 78.0958C113.584 82.0589 113.586 86.1055 113.587 90.2246C113.594 91.2596 113.554 92.2863 113.728 93.2871C113.869 94.2962 114.18 95.2828 114.619 96.2094C115.483 98.0701 116.914 99.6889 118.689 100.781C120.455 101.901 122.565 102.444 124.69 102.409C126.847 102.409 129.018 102.409 131.202 102.409C144.641 102.412 157.589 102.415 169.491 102.419H169.608L169.668 102.519C172.149 106.639 174.565 110.651 176.835 114.419L176.494 114.424C178.83 110.292 181.088 106.299 183.216 102.534L183.27 102.44H183.378C184.52 102.441 185.65 102.443 186.767 102.444C187.33 102.456 187.873 102.42 188.416 102.394C188.952 102.315 189.495 102.27 190.009 102.115C191.057 101.873 192.044 101.447 192.942 100.906C193.85 100.381 194.655 99.708 195.345 98.9541C196.751 97.4612 197.639 95.5898 198.021 93.6949C198.199 92.7375 198.238 91.7909 198.227 90.8293C198.228 89.8743 198.23 88.9336 198.232 88.0087C198.231 80.6086 198.29 74.1534 198.244 68.8634C198.176 67.5523 197.881 66.3289 197.438 65.2455C196.977 64.168 196.378 63.2389 195.734 62.4474C194.403 60.8937 192.906 59.9179 191.606 59.3783C188.964 58.3183 187.371 58.5643 187.392 58.4776Z" fill="#263238"/>
<path d="M188.493 74.0167C188.493 74.1368 174.681 74.2335 157.648 74.2335C140.608 74.2335 126.8 74.1359 126.8 74.0167C126.8 73.8966 140.608 73.7998 157.648 73.7998C174.682 73.7998 188.493 73.8966 188.493 74.0167Z" fill="#263238"/>
<path d="M188.493 80.7095C188.493 80.8296 174.681 80.9264 157.648 80.9264C140.608 80.9264 126.8 80.8296 126.8 80.7095C126.8 80.5894 140.608 80.4927 157.648 80.4927C174.682 80.4927 188.493 80.5903 188.493 80.7095Z" fill="#263238"/>
<path d="M188.493 87.4032C188.493 87.5233 174.681 87.62 157.648 87.62C140.608 87.62 126.8 87.5225 126.8 87.4032C126.8 87.284 140.608 87.1864 157.648 87.1864C174.682 87.1864 188.493 87.2831 188.493 87.4032Z" fill="#263238"/>
<path d="M321.952 235.125C321.156 234.18 320.119 233.324 319.867 232.114C319.625 230.95 320.181 229.791 320.43 228.63C321.127 225.394 319.098 221.797 315.969 220.72C314.17 220.1 311.861 220.048 310.947 218.379C310.049 216.74 311.188 214.798 311.857 213.052C312.965 210.16 312.672 206.786 311.143 204.096C310.927 203.479 310.673 202.878 310.378 202.298C308.023 197.66 303.235 194.577 298.328 194.541C297.59 190.736 294.434 187.797 290.895 187.03C290.896 185.678 290.611 184.32 289.997 183.126C288.235 179.701 284.494 177.621 280.692 177.007C275.187 176.119 269.302 178.07 265.418 182.069C263.319 184.23 261.618 187.05 258.773 188.04C256.272 188.911 253.504 188.125 250.877 188.466C247.356 188.922 244.339 191.425 242.533 194.482C240.727 197.539 239.983 201.104 239.566 204.63C239.183 207.866 238.93 211.417 236.685 213.779C234.496 216.082 231.037 216.57 228.315 218.208C223.193 221.29 221.533 228.925 224.912 233.857C225.99 235.429 227.537 236.87 227.662 238.773C227.776 240.509 226.654 242.055 226.128 243.714C224.775 247.985 228.272 253.06 232.744 253.317C235.003 253.446 237.422 252.566 239.446 253.575C241.457 254.578 242.205 257.003 243.491 258.845C246.022 262.47 251.313 263.836 255.282 261.89C256.943 261.075 258.512 259.731 260.357 259.855C262.2 259.979 263.649 261.552 265.462 261.903C267.835 262.361 270.088 260.614 271.5 258.652C272.91 256.689 273.893 254.378 275.7 252.771C278.064 250.668 281.387 250.148 284.378 249.118C288.671 247.64 292.488 244.895 295.363 241.385L295.07 258.048C297.542 258.048 298.987 257.183 299.907 255.905C300.423 256.248 300.971 256.543 301.563 256.739C304.48 257.703 307.955 256.614 309.802 254.158C310.765 252.877 311.362 251.236 312.727 250.396C313.917 249.664 315.407 249.721 316.782 249.471C319.804 248.922 322.459 246.676 323.499 243.787C324.54 240.898 323.929 237.475 321.952 235.125Z" fill="#263238"/>
<path d="M265.999 196.183C262.547 198.359 254.708 207.939 254.554 210.761L255.36 268.083C255.232 272.39 254.495 276.097 257.014 279.594C264.001 287.944 280.172 288.968 283.869 282.091C284.154 281.563 284.361 281.098 284.462 280.708C284.58 280.144 284.743 279.775 284.786 279.294C285.788 274.441 285.628 269.766 285.628 269.766C286.11 264.162 286.28 261.863 286.28 261.915C286.28 261.915 298.254 260.829 301.85 245.577C303.639 237.992 304.187 225.379 304.302 215.044C304.321 213.3 303.874 211.271 303.072 209.126C298.627 197.232 288.407 191.458 276.119 192.514C273.042 192.778 268.331 194.156 265.999 196.183Z" fill="#FFBF9D"/>
<path d="M286.678 236.601C286.677 236.479 288.019 236.349 290.184 236.233C290.732 236.217 291.254 236.147 291.374 235.783C291.531 235.399 291.347 234.796 291.13 234.144C290.717 232.789 290.284 231.37 289.829 229.883C288.034 223.821 286.776 218.852 287.02 218.782C287.265 218.712 288.92 223.569 290.716 229.631C291.145 231.125 291.557 232.549 291.948 233.912C292.108 234.545 292.41 235.273 292.072 236.067C291.895 236.463 291.474 236.728 291.119 236.796C290.762 236.876 290.455 236.859 290.185 236.855C288.018 236.813 286.677 236.723 286.678 236.601Z" fill="#263238"/>
<path d="M286.28 261.915C286.28 261.915 275.847 261.814 266.019 254.868C266.019 254.868 270.424 265.938 285.978 265.639L286.28 261.915Z" fill="#FF9A6C"/>
<path d="M285.396 241.667C284.706 240.597 283.405 239.942 282.062 239.987C281.131 240.018 280.163 240.394 279.546 241.105C278.929 241.816 278.731 242.876 279.189 243.631C279.704 244.482 280.891 244.758 281.929 244.545C282.967 244.331 283.891 243.727 284.772 243.122C285.015 242.954 285.265 242.779 285.426 242.536C285.589 242.295 285.644 241.966 285.482 241.744" fill="#FF9A6C"/>
<path d="M280.301 237.609C280.649 237.615 280.481 239.927 282.339 241.715C284.191 243.508 286.676 243.431 286.67 243.756C286.692 243.903 286.088 244.164 285.045 244.115C284.022 244.074 282.557 243.636 281.421 242.542C280.288 241.446 279.869 240.065 279.86 239.111C279.844 238.138 280.144 237.584 280.301 237.609Z" fill="#263238"/>
<path d="M279.913 214.455C279.66 215.019 277.554 214.586 275.033 214.702C272.509 214.767 270.44 215.349 270.147 214.805C270.018 214.546 270.409 214.027 271.265 213.527C272.114 213.027 273.443 212.591 274.955 212.535C276.468 212.482 277.823 212.822 278.706 213.26C279.596 213.698 280.024 214.186 279.913 214.455Z" fill="#263238"/>
<path d="M301.149 214.451C300.666 214.901 298.953 214.27 296.851 214.089C294.753 213.848 292.939 214.126 292.567 213.59C292.405 213.331 292.722 212.868 293.535 212.467C294.336 212.068 295.647 211.79 297.091 211.934C298.534 212.08 299.755 212.612 300.449 213.161C301.157 213.713 301.363 214.229 301.149 214.451Z" fill="#263238"/>
<path d="M257.657 230.689C257.739 229.539 256.612 226.731 255.49 226.469C252.494 225.772 247.012 225.61 246.391 233.304C245.541 243.822 256.276 242.506 256.319 242.205C256.352 241.971 257.372 234.658 257.657 230.689Z" fill="#FFBF9D"/>
<path d="M253.427 237.962C253.383 237.924 253.233 238.075 252.912 238.192C252.599 238.305 252.071 238.36 251.54 238.109C250.462 237.612 249.669 235.773 249.771 233.873C249.821 232.913 250.096 232.018 250.496 231.291C250.88 230.548 251.42 230.05 251.988 229.996C252.554 229.912 252.924 230.279 253.029 230.585C253.146 230.891 253.062 231.096 253.116 231.118C253.143 231.147 253.356 230.96 253.307 230.519C253.28 230.307 253.177 230.048 252.946 229.826C252.71 229.6 252.348 229.466 251.955 229.477C251.139 229.468 250.349 230.155 249.91 230.953C249.425 231.752 249.094 232.756 249.037 233.834C248.933 235.959 249.858 238.029 251.343 238.592C252.067 238.843 252.703 238.671 253.041 238.448C253.388 238.215 253.462 237.984 253.427 237.962Z" fill="#FF9A6C"/>
<path d="M253.434 210.761C253.242 211.255 253.434 210.232 253.434 210.761V210.761Z" fill="#455A64"/>
<path d="M296.548 196C292.634 193.363 289.418 190.317 279.86 190.303C272.479 190.292 267.074 194.586 261.26 199.66C253.79 206.176 249.057 216.795 252.205 226.194L255.342 227.421L258.324 220.212C263.461 209.036 274.146 199.637 285.676 199.085C286.833 199.03 287.911 199.04 288.864 199.135C296.489 199.9 304.303 213.781 304.303 213.781C304.303 213.781 305.718 202.177 296.548 196Z" fill="#E27900"/>
<path d="M255.36 227.37C255.528 229.553 255.863 231.523 256.031 233.705C256.102 234.625 256.336 235.755 257.225 236.003C257.859 236.18 258.538 235.758 258.873 235.191C259.208 234.624 259.28 233.945 259.344 233.289C259.993 226.674 260.545 221.631 261.193 215.016C259.285 217.667 257.33 222.236 255.36 227.37Z" fill="#263238"/>
<path d="M253.618 243.95C253.638 243.948 253.679 244.161 253.541 244.507C253.41 244.852 253.049 245.3 252.444 245.586C251.845 245.877 250.992 245.947 250.162 245.646C249.341 245.359 248.512 244.677 248.175 243.688C247.839 242.712 247.994 241.668 248.443 240.908C248.895 240.132 249.62 239.69 250.243 239.506C250.875 239.312 251.419 239.35 251.77 239.426C252.124 239.505 252.298 239.611 252.288 239.633C252.281 239.72 251.494 239.38 250.342 239.797C249.784 240.001 249.164 240.422 248.791 241.105C248.415 241.779 248.293 242.702 248.585 243.546C248.871 244.392 249.579 244.995 250.301 245.271C251.029 245.556 251.778 245.527 252.321 245.304C252.874 245.084 253.226 244.721 253.388 244.433C253.56 244.144 253.579 243.944 253.618 243.95Z" fill="#E0E0E0"/>
<path d="M275.79 201.717C275.79 201.717 284.105 204.011 286.918 203.142C290.084 202.162 291.465 199.733 291.465 199.733C291.465 199.733 285.007 196.883 275.79 201.717Z" fill="#263238"/>
<path d="M321.937 223.07C321.906 223.038 322.326 222.755 322.816 222.007C323.298 221.278 323.834 220.015 323.701 218.396C323.592 216.795 322.624 214.93 320.864 213.625C319.115 212.304 316.609 211.678 313.998 211.857L313.635 211.882L313.797 211.553C314.641 209.839 315.431 207.932 315.75 205.865C315.999 204.217 315.915 202.551 315.427 201.065C314.944 199.576 314.019 198.324 312.928 197.386C310.713 195.495 308.05 194.802 305.875 194.616C303.674 194.428 301.875 194.631 300.645 194.767C300.067 194.839 299.597 194.898 299.226 194.945C298.901 194.987 298.729 195.002 298.726 194.988C298.724 194.973 298.891 194.929 299.211 194.859C299.532 194.791 300.006 194.697 300.623 194.6C301.851 194.413 303.657 194.159 305.9 194.311C308.115 194.462 310.868 195.133 313.188 197.083C314.33 198.049 315.317 199.366 315.831 200.932C316.35 202.493 316.438 204.227 316.179 205.931C315.849 208.068 315.034 210.012 314.174 211.742L313.973 211.438C316.661 211.265 319.266 211.931 321.083 213.336C322.906 214.721 323.891 216.694 323.969 218.378C324.069 220.074 323.469 221.365 322.935 222.091C322.392 222.832 321.937 223.07 321.937 223.07Z" fill="#263238"/>
<path d="M235.597 240.807C235.597 240.814 235.52 240.817 235.369 240.813C235.194 240.807 234.974 240.798 234.701 240.788C234.114 240.757 233.247 240.713 232.136 240.582C231.028 240.445 229.66 240.23 228.157 239.671C226.677 239.104 225.009 238.168 223.788 236.516C222.558 234.861 222.102 232.554 222.195 230.202C222.234 229.019 222.375 227.805 222.55 226.566C222.726 225.331 222.898 224.036 223.34 222.761C223.775 221.495 224.527 220.241 225.713 219.405C226.912 218.525 228.48 218.47 229.89 218.493C231.305 218.508 232.824 218.55 233.98 217.712C235.123 216.88 235.708 215.406 235.842 213.95C235.984 212.466 235.751 210.974 235.675 209.482C235.587 207.988 235.666 206.508 235.858 205.074C236.237 202.201 237.14 199.509 238.412 197.171C239.68 194.831 241.32 192.843 243.141 191.33C244.958 189.803 246.939 188.76 248.832 188.09C252.64 186.718 256.02 186.872 258.199 187.293C260.401 187.743 261.502 188.351 261.502 188.351C261.499 188.357 261.423 188.337 261.28 188.291C261.114 188.235 260.906 188.165 260.648 188.077C260.095 187.89 259.262 187.649 258.169 187.459C256.002 187.093 252.67 186.99 248.936 188.379C247.08 189.056 245.143 190.098 243.372 191.605C241.597 193.101 239.998 195.058 238.763 197.361C237.525 199.661 236.646 202.308 236.279 205.131C236.093 206.54 236.018 207.992 236.105 209.459C236.179 210.924 236.421 212.434 236.273 213.992C236.129 215.528 235.521 217.119 234.232 218.063C233.589 218.516 232.829 218.766 232.083 218.85C231.336 218.942 230.601 218.925 229.885 218.918C228.469 218.893 227.034 218.952 225.949 219.746C224.859 220.508 224.137 221.683 223.717 222.894C223.287 224.115 223.108 225.387 222.927 226.62C222.746 227.854 222.6 229.053 222.554 230.215C222.448 232.527 222.875 234.742 224.036 236.336C225.189 237.932 226.8 238.868 228.244 239.445C229.709 240.015 231.059 240.253 232.156 240.416C233.258 240.571 234.121 240.643 234.706 240.702C234.978 240.729 235.196 240.752 235.371 240.77C235.522 240.787 235.598 240.799 235.597 240.807Z" fill="#263238"/>
<path d="M262.313 199.665C262.336 199.685 262.093 200.019 261.637 200.606C261.406 200.896 261.127 201.255 260.826 201.69C260.522 202.121 260.154 202.594 259.802 203.157C259.056 204.254 258.253 205.615 257.447 207.17C256.664 208.735 255.89 210.502 255.233 212.412C254.593 214.33 254.131 216.202 253.801 217.922C253.495 219.646 253.305 221.215 253.229 222.539C253.166 223.199 253.17 223.8 253.149 224.327C253.124 224.854 253.127 225.308 253.134 225.68C253.139 226.423 253.127 226.836 253.097 226.838C253.067 226.84 253.022 226.43 252.965 225.685C252.931 225.313 252.904 224.857 252.905 224.326C252.903 223.796 252.878 223.19 252.922 222.522C252.959 221.185 253.119 219.596 253.407 217.85C253.719 216.108 254.173 214.21 254.821 212.271C255.486 210.338 256.28 208.557 257.091 206.985C257.925 205.423 258.764 204.066 259.548 202.982C259.919 202.426 260.308 201.961 260.633 201.541C260.954 201.118 261.254 200.774 261.507 200.498C262.005 199.942 262.29 199.645 262.313 199.665Z" fill="#263238"/>
<path d="M270.724 195.679C270.743 195.702 270.381 196.047 269.712 196.647C269.374 196.943 268.966 197.311 268.515 197.762C268.06 198.21 267.521 198.697 266.98 199.291C265.858 200.437 264.606 201.883 263.305 203.557C262.029 205.248 260.718 207.177 259.506 209.302C258.311 211.438 257.337 213.558 256.548 215.525C255.785 217.502 255.194 219.321 254.793 220.875C254.563 221.645 254.425 222.358 254.277 222.978C254.123 223.598 254.02 224.137 253.94 224.58C253.771 225.462 253.664 225.95 253.634 225.946C253.604 225.941 253.656 225.446 253.775 224.551C253.829 224.103 253.908 223.556 254.04 222.929C254.167 222.301 254.285 221.579 254.496 220.799C254.862 219.225 255.428 217.383 256.176 215.38C256.95 213.389 257.924 211.244 259.129 209.089C260.351 206.945 261.685 205.004 262.99 203.313C264.318 201.638 265.604 200.203 266.762 199.077C267.321 198.493 267.878 198.018 268.35 197.585C268.82 197.148 269.247 196.798 269.603 196.52C270.307 195.956 270.705 195.656 270.724 195.679Z" fill="#263238"/>
<path d="M241.238 245.224C241.242 245.23 241.165 245.285 241.01 245.386C240.859 245.494 240.622 245.635 240.295 245.788C239.645 246.095 238.605 246.451 237.219 246.45C235.851 246.447 234.114 246.096 232.488 244.963C230.861 243.848 229.508 241.872 228.973 239.451C228.709 238.24 228.644 236.924 228.848 235.584C229.062 234.248 229.527 232.895 230.255 231.634C230.978 230.372 231.933 229.184 233.094 228.158C234.243 227.114 235.63 226.293 237.044 225.524C238.446 224.741 239.905 223.942 241.029 222.725C242.174 221.528 242.924 219.959 243.388 218.297C243.841 216.623 244.037 214.852 244.128 213.049C244.223 211.249 244.211 209.399 244.397 207.533C244.57 205.669 244.916 203.815 245.645 202.113C246.346 200.4 247.569 198.928 249.06 197.933C250.549 196.924 252.221 196.336 253.847 195.867C255.48 195.402 257.095 195.042 258.626 194.566C260.154 194.093 261.61 193.496 262.822 192.611C263.124 192.39 263.426 192.171 263.677 191.901C263.943 191.646 264.212 191.397 264.436 191.11C264.893 190.546 265.279 189.933 265.642 189.319C266.366 188.092 267.028 186.839 267.963 185.842C268.892 184.848 269.996 184.115 271.131 183.617C273.415 182.634 275.8 182.61 277.664 183.225C279.545 183.826 280.915 184.917 281.833 185.93C282.759 186.954 283.245 187.927 283.519 188.591C283.795 189.259 283.854 189.637 283.854 189.637C283.825 189.647 283.738 189.275 283.439 188.625C283.142 187.979 282.638 187.034 281.709 186.045C280.789 185.065 279.43 184.019 277.592 183.457C275.775 182.88 273.461 182.929 271.254 183.898C270.158 184.389 269.098 185.106 268.21 186.069C267.319 187.03 266.676 188.258 265.953 189.501C265.589 190.123 265.198 190.752 264.724 191.343C264.492 191.644 264.213 191.906 263.937 192.174C263.673 192.457 263.361 192.687 263.047 192.918C261.788 193.846 260.291 194.463 258.745 194.948C257.195 195.435 255.578 195.8 253.961 196.264C252.353 196.732 250.724 197.314 249.299 198.284C247.873 199.242 246.717 200.631 246.041 202.284C245.34 203.924 244.998 205.735 244.829 207.574C244.646 209.416 244.656 211.253 244.559 213.074C244.465 214.89 244.266 216.692 243.798 218.412C243.32 220.119 242.536 221.757 241.332 223.011C240.144 224.286 238.642 225.097 237.238 225.876C235.818 226.643 234.473 227.433 233.348 228.445C232.212 229.44 231.278 230.592 230.568 231.814C229.854 233.036 229.396 234.346 229.18 235.638C228.974 236.933 229.028 238.21 229.274 239.387C229.775 241.742 231.068 243.67 232.629 244.766C234.192 245.883 235.883 246.254 237.221 246.283C238.578 246.309 239.607 245.987 240.26 245.71C240.919 245.433 241.22 245.194 241.238 245.224Z" fill="#455A64"/>
<path d="M298.725 226.724C298.766 227.821 297.871 228.761 296.726 228.825C295.583 228.889 294.621 228.054 294.58 226.956C294.539 225.859 295.434 224.918 296.576 224.855C297.721 224.791 298.683 225.627 298.725 226.724Z" fill="#263238"/>
<path d="M300.48 220.386C300.223 220.658 298.646 219.496 296.41 219.507C294.177 219.486 292.538 220.64 292.295 220.366C292.176 220.245 292.438 219.756 293.151 219.234C293.853 218.714 295.052 218.208 296.444 218.21C297.837 218.214 299.01 218.725 299.685 219.249C300.373 219.776 300.607 220.265 300.48 220.386Z" fill="#263238"/>
<path d="M279.365 226.725C279.406 227.822 278.511 228.761 277.366 228.825C276.223 228.889 275.262 228.054 275.22 226.956C275.179 225.86 276.074 224.918 277.217 224.855C278.362 224.791 279.324 225.627 279.365 226.725Z" fill="#263238"/>
<path d="M279.309 220.387C279.051 220.659 277.473 219.497 275.238 219.508C273.005 219.487 271.366 220.641 271.123 220.368C271.004 220.247 271.263 219.757 271.979 219.236C272.681 218.716 273.88 218.209 275.273 218.212C276.665 218.217 277.838 218.727 278.513 219.25C279.2 219.775 279.435 220.265 279.309 220.387Z" fill="#263238"/>
<path d="M317.248 290.371C307.595 278.626 299.25 276.957 299.25 276.957L299.306 318.867L330.077 357.786L342.596 325.755C342.596 325.755 323.787 298.328 317.248 290.371Z" fill="#E27900"/>
<path d="M285.579 273.639L299.373 276.987C299.373 276.987 306.496 318.294 303.913 328.979C301.715 338.069 294.661 380.019 294.661 380.019H209.613L238.109 298.155C238.109 298.155 238.273 280.158 233.874 271.842C236.541 271.201 245.546 269.545 253.328 268.083C253.328 268.083 258.502 274.54 270.678 276.385C282.854 278.23 285.579 273.639 285.579 273.639Z" fill="#E27900"/>
<path d="M302.463 308.236H249.029C244.359 335.563 232.99 346.042 212.938 361.862L209.613 380.019H294.661L299.597 351.491L299.307 340.985L302.463 308.236Z" fill="#455A64"/>
<path d="M235.924 271.439C235.924 271.439 215.602 273.067 208.311 306.362C205.012 321.421 200.846 339.071 199.645 350.933C198.773 359.537 201.851 371.427 210.12 373.396L225.141 375.313C231.85 375.413 236.455 369.961 237.867 364.118L240.21 354.83C241.824 343.474 233.178 342.49 228.317 342.595L239.01 300.304L241.081 279.841L235.924 271.439Z" fill="#E27900"/>
<path d="M305.341 299.759C305.352 299.757 305.383 299.917 305.434 300.223C305.486 300.561 305.553 301.007 305.638 301.565C305.681 301.86 305.728 302.184 305.779 302.536C305.815 302.895 305.854 303.282 305.896 303.697C305.98 304.53 306.082 305.479 306.126 306.533C306.281 308.638 306.277 311.153 306.176 313.939C306.059 316.726 305.743 319.781 305.277 322.963C304.809 326.147 304.222 329.157 303.627 331.879C303.042 334.604 302.443 337.04 301.936 339.084C301.419 341.126 300.991 342.776 300.68 343.912C300.529 344.455 300.408 344.89 300.317 345.218C300.23 345.516 300.18 345.671 300.169 345.668C300.158 345.665 300.187 345.505 300.253 345.202C300.33 344.869 300.431 344.429 300.557 343.88C300.838 342.701 301.231 341.052 301.713 339.029C302.19 336.979 302.766 334.54 303.334 331.816C303.913 329.095 304.49 326.09 304.955 322.915C305.42 319.741 305.744 316.7 305.878 313.924C305.995 311.15 306.021 308.643 305.897 306.544C305.868 305.493 305.783 304.546 305.716 303.713C305.684 303.298 305.653 302.91 305.625 302.552C305.585 302.199 305.548 301.875 305.513 301.579C305.453 301.019 305.406 300.57 305.37 300.232C305.34 299.924 305.33 299.76 305.341 299.759Z" fill="#263238"/>
<path d="M212.27 354.273C212.251 354.269 212.296 353.968 212.431 353.436C212.564 352.903 212.811 352.143 213.215 351.246C214.01 349.456 215.581 347.115 218.033 345.33C220.485 343.545 223.197 342.772 225.144 342.565C226.123 342.455 226.921 342.455 227.47 342.49C228.018 342.526 228.318 342.576 228.317 342.595C228.315 342.662 227.1 342.519 225.174 342.792C223.263 343.054 220.623 343.847 218.224 345.593C215.828 347.338 214.26 349.605 213.424 351.344C212.571 353.091 212.334 354.292 212.27 354.273Z" fill="#263238"/>
<path d="M216.968 337.687C216.968 337.664 217.142 337.649 217.459 337.641C217.776 337.628 218.234 337.647 218.798 337.7C219.926 337.805 221.479 338.121 223.086 338.779C224.692 339.442 226.018 340.31 226.893 341.029C227.332 341.388 227.67 341.697 227.886 341.929C228.106 342.158 228.218 342.291 228.203 342.308C228.166 342.347 227.654 341.873 226.753 341.212C225.854 340.55 224.536 339.731 222.962 339.08C221.386 338.435 219.875 338.09 218.77 337.928C217.663 337.764 216.967 337.742 216.968 337.687Z" fill="#263238"/>
<path d="M238.004 294.575C237.982 294.574 237.965 294.256 237.955 293.685C237.951 293.113 237.919 292.285 237.848 291.267C237.713 289.23 237.334 286.425 236.497 283.425C235.651 280.426 234.513 277.833 233.569 276.023C233.099 275.117 232.697 274.394 232.402 273.903C232.114 273.409 231.963 273.13 231.981 273.118C232 273.105 232.187 273.361 232.51 273.836C232.838 274.308 233.273 275.017 233.772 275.915C234.773 277.708 235.955 280.311 236.809 283.336C237.655 286.363 238 289.201 238.078 291.254C238.119 292.28 238.117 293.112 238.082 293.686C238.054 294.259 238.027 294.575 238.004 294.575Z" fill="#263238"/>
<g opacity="0.3">
<path d="M304.405 327.714C309.59 318.934 309.701 307.524 305.177 298.385C306.527 308.117 306.417 318.093 304.252 327.676" fill="black"/>
</g>
<path d="M234.099 371.643C234.065 371.614 233.746 372.067 232.988 372.692C232.226 373.306 230.966 374.018 229.268 374.468C227.576 374.932 225.468 375.124 223.148 375.006C220.827 374.838 218.266 374.566 215.605 374.171C212.952 373.759 210.403 373.281 208.243 372.474C207.182 372.033 206.293 371.36 205.538 370.668C204.784 369.968 204.159 369.231 203.645 368.52C202.614 367.095 201.973 365.812 201.569 364.915C201.375 364.462 201.223 364.11 201.133 363.866C201.037 363.624 200.981 363.499 200.971 363.502C200.961 363.506 200.996 363.638 201.072 363.888C201.142 364.139 201.275 364.501 201.453 364.964C201.824 365.882 202.438 367.194 203.459 368.654C203.967 369.384 204.591 370.142 205.354 370.866C206.119 371.581 207.025 372.283 208.126 372.75C210.346 373.596 212.885 374.076 215.556 374.493C218.233 374.89 220.79 375.152 223.133 375.305C225.481 375.408 227.616 375.191 229.329 374.69C231.048 374.204 232.318 373.444 233.068 372.79C233.433 372.449 233.708 372.178 233.861 371.963C234.026 371.759 234.107 371.65 234.099 371.643Z" fill="#263238"/>
<path d="M237.452 305.186C237.366 305.165 235.222 313.484 232.667 323.766C230.111 334.052 228.109 342.405 228.197 342.426C228.283 342.448 230.426 334.13 232.982 323.845C235.538 313.562 237.539 305.208 237.452 305.186Z" fill="#263238"/>
<path d="M240.04 352.137C240.062 352.138 240.101 351.895 240.144 351.453C240.181 351.011 240.242 350.368 240.187 349.564C240.14 348.763 239.868 347.792 239.274 346.899C238.979 346.456 238.652 346.002 238.23 345.589C237.813 345.177 237.318 344.823 236.787 344.514C234.623 343.336 232.442 342.844 230.871 342.605C230.082 342.492 229.438 342.45 228.994 342.438C228.549 342.425 228.303 342.443 228.302 342.463C228.299 342.517 229.282 342.554 230.835 342.832C232.372 343.123 234.527 343.654 236.625 344.796C237.138 345.094 237.612 345.429 238.009 345.817C238.406 346.199 238.733 346.641 239.024 347.062C239.607 347.913 239.883 348.81 239.958 349.586C240.041 350.363 240.017 351.006 240.018 351.448C240.014 351.89 240.017 352.137 240.04 352.137Z" fill="#263238"/>
<path d="M281.138 350.971C281.127 350.977 281.115 350.982 281.102 350.989C281.113 350.983 281.125 350.977 281.138 350.971Z" fill="#FFBF9D"/>
<path d="M280.916 351.077C280.887 351.091 280.859 351.105 280.834 351.116C280.858 351.105 280.883 351.092 280.916 351.077Z" fill="#FFBF9D"/>
<path d="M281.101 350.989C281.029 351.023 280.965 351.054 280.916 351.077C280.98 351.047 281.046 351.016 281.101 350.989Z" fill="#FFBF9D"/>
<path d="M281.22 350.932C281.189 350.947 281.166 350.958 281.139 350.971C281.186 350.948 281.22 350.932 281.22 350.932Z" fill="#FFBF9D"/>
<path d="M300.309 368.467C298.678 365.381 285.927 357.243 285.927 357.243L289.379 356.446L293.189 358.057C293.189 358.057 293.428 359.628 294.829 361.627C296.231 363.625 298.609 361.558 298.609 361.558L296.998 353.84L289.459 349.303C289.459 349.303 282.365 350.387 281.22 350.932L278.196 353.7C276.869 354.74 273.037 358.842 271.989 358.966C270.941 359.09 238.031 351.687 238.031 351.687C233.519 355.26 231.142 362.359 230.425 367.48C230.425 367.48 229.623 369.995 230.496 371.36L270.896 374.53L279.456 376.896C279.456 376.896 284.192 378.83 286.49 379.313C289.338 379.911 291.257 378.994 291.333 377.417C291.41 375.84 289.2 375.669 289.2 375.669C289.2 375.669 285.606 374.369 283.695 373.248C281.784 372.127 280.588 369.839 280.588 369.839L283.64 370.204C283.64 370.204 290.129 374.708 292.568 376.029C295.007 377.35 295.489 374.926 295.686 374.187C295.882 373.448 288.398 366.126 288.398 366.126C288.398 366.126 295.515 370.514 296.795 371.62C298.075 372.727 299.972 373.058 300.378 372.316C300.785 371.574 301.941 371.553 300.309 368.467Z" fill="#FFBF9D"/>
<path d="M280.833 351.117C280.803 351.131 280.78 351.142 280.762 351.15C280.782 351.141 280.806 351.13 280.833 351.117Z" fill="#FFBF9D"/>
<path d="M280.723 351.169C280.711 351.175 280.711 351.175 280.723 351.169V351.169Z" fill="#FFBF9D"/>
<path d="M280.762 351.151C280.745 351.159 280.731 351.166 280.723 351.169C280.73 351.166 280.743 351.16 280.762 351.151Z" fill="#FFBF9D"/>
<path d="M265.199 369.181C265.178 369.182 265.165 369.005 265.16 368.681C265.15 368.518 265.167 368.321 265.199 368.093C265.221 367.862 265.261 367.603 265.34 367.324C265.594 366.188 266.324 364.726 267.407 363.338C268.49 361.946 269.655 360.855 270.52 360.103C271.389 359.353 271.964 358.937 271.988 358.966C272.017 359.001 271.49 359.474 270.662 360.26C269.838 361.048 268.708 362.152 267.644 363.521C266.579 364.887 265.843 366.289 265.544 367.379C265.229 368.465 265.261 369.183 265.199 369.181Z" fill="#FF9A6C"/>
<path d="M285.633 357.003C285.646 357.077 284.629 357.206 283.457 356.808C282.282 356.418 281.549 355.703 281.604 355.65C281.658 355.578 282.438 356.156 283.553 356.523C284.663 356.903 285.633 356.912 285.633 357.003Z" fill="#FF9A6C"/>
<path d="M287.752 365.452C287.72 365.529 286.267 365.003 284.506 364.279C282.744 363.554 281.342 362.905 281.374 362.828C281.406 362.752 282.859 363.277 284.62 364.002C286.381 364.727 287.783 365.376 287.752 365.452Z" fill="#FF9A6C"/>
<path d="M280.915 369.769C280.875 369.844 280.151 369.531 279.25 369.18C278.35 368.827 277.606 368.566 277.627 368.484C277.646 368.406 278.439 368.54 279.358 368.901C280.279 369.26 280.954 369.699 280.915 369.769Z" fill="#FF9A6C"/>
<path d="M286.703 366.015C286.735 366.098 285.996 366.372 285.444 367.114C284.875 367.845 284.808 368.63 284.72 368.62C284.683 368.62 284.645 368.419 284.695 368.094C284.743 367.772 284.901 367.334 285.205 366.932C285.511 366.532 285.891 366.263 286.189 366.131C286.487 365.998 286.692 365.98 286.703 366.015Z" fill="#FF9A6C"/>
<path d="M289.697 361.3C289.736 361.378 289.178 361.68 288.81 362.327C288.427 362.965 288.438 363.6 288.351 363.604C288.275 363.632 288.117 362.912 288.551 362.176C288.978 361.436 289.683 361.22 289.697 361.3Z" fill="#FF9A6C"/>
<path d="M288.681 352.875C288.647 352.89 288.531 352.75 288.442 352.473C288.352 352.198 288.313 351.784 288.417 351.348C288.523 350.914 288.747 350.563 288.953 350.36C289.159 350.154 289.326 350.082 289.348 350.112C289.406 350.177 288.887 350.633 288.707 351.418C288.509 352.2 288.762 352.843 288.681 352.875Z" fill="#FF9A6C"/>
<path d="M230.138 372.518C230.161 372.517 230.179 372.186 230.192 371.589C230.196 371.291 230.204 370.926 230.235 370.504C230.262 370.081 230.273 369.599 230.335 369.07C230.518 366.952 230.991 364.027 232.099 360.974C232.661 359.453 233.327 358.056 234.013 356.831C234.384 356.236 234.709 355.651 235.081 355.149C235.26 354.894 235.433 354.648 235.6 354.409C235.779 354.183 235.953 353.965 236.119 353.756C237.461 352.105 238.489 351.262 238.441 351.208C238.426 351.192 238.17 351.399 237.716 351.792C237.484 351.984 237.213 352.231 236.922 352.543C236.626 352.85 236.276 353.188 235.942 353.609C235.768 353.817 235.588 354.033 235.402 354.256C235.222 354.488 235.048 354.739 234.861 354.994C234.475 355.496 234.136 356.081 233.754 356.681C233.045 357.913 232.362 359.324 231.794 360.863C230.673 363.953 230.232 366.916 230.106 369.053C230.059 369.588 230.065 370.073 230.054 370.499C230.041 370.924 230.051 371.291 230.066 371.59C230.091 372.188 230.116 372.518 230.138 372.518Z" fill="#263238"/>
<g opacity="0.3">
<path d="M258.127 313.868V314.968L251.982 315.368L248.869 290.616C248.869 290.616 247.545 282.287 246.69 279.252C245.833 276.216 242.181 270.176 242.181 270.176L244.886 269.666L250.153 278.24L258.127 313.868Z" fill="black"/>
</g>
<path d="M258.936 313.831C258.936 313.831 256.212 290.843 253.639 281.661C251.067 272.479 247.054 269.206 247.054 269.206L243.096 269.951C243.096 269.951 247.036 274.747 248.561 283.201C250.087 291.655 252.937 314.107 252.937 314.107L258.936 313.831Z" fill="#455A64"/>
<path d="M258.936 313.831C258.943 313.837 258.819 313.848 258.568 313.867C258.287 313.885 257.913 313.91 257.433 313.943C256.385 314.004 254.883 314.093 252.942 314.206L252.85 314.212L252.837 314.119C252.259 309.939 251.387 303.633 250.321 295.928C249.76 292.068 249.164 287.85 248.384 283.407C247.997 281.192 247.377 278.957 246.528 276.753C245.67 274.558 244.586 272.372 243.159 270.39L242.928 270.088L242.711 269.801L243.056 269.736C244.412 269.481 245.751 269.23 247.014 268.993L247.121 268.973L247.192 269.038C248.445 270.193 249.384 271.535 250.219 272.912C251.047 274.293 251.731 275.72 252.322 277.152C253.488 280.023 254.237 282.917 254.805 285.675C255.936 291.197 256.675 296.183 257.279 300.356C257.874 304.53 258.295 307.899 258.569 310.222C258.696 311.362 258.795 312.257 258.866 312.896C258.893 313.184 258.914 313.413 258.93 313.592C258.94 313.761 258.941 313.836 258.936 313.831C258.932 313.827 258.914 313.741 258.887 313.597C258.86 313.419 258.825 313.192 258.783 312.908C258.693 312.271 258.568 311.38 258.408 310.244C258.085 307.927 257.62 304.566 256.987 300.4C256.345 296.237 255.574 291.257 254.423 285.757C253.846 283.009 253.094 280.148 251.934 277.311C251.348 275.897 250.668 274.489 249.852 273.133C249.039 271.788 248.084 270.448 246.917 269.374L247.094 269.419C245.832 269.656 244.493 269.908 243.136 270.164L243.264 269.813L243.508 270.133C244.971 272.164 246.06 274.371 246.929 276.599C247.786 278.831 248.409 281.096 248.796 283.334C249.566 287.793 250.146 292.012 250.687 295.877C251.75 303.61 252.539 309.941 253.036 314.094L252.932 314.006C254.85 313.943 256.333 313.894 257.368 313.86C257.859 313.848 258.242 313.838 258.528 313.83C258.792 313.825 258.929 313.825 258.936 313.831Z" fill="#263238"/>
<path d="M299.25 276.957C299.25 276.957 300.166 302.085 297.017 314.967L291.012 314.775C291.012 314.775 295.474 283.528 294.886 275.733C294.886 275.733 297.412 275.725 299.25 276.957Z" fill="#455A64"/>
<path d="M299.25 276.957C299.226 276.971 298.911 276.747 298.196 276.455C297.485 276.179 296.364 275.859 294.886 275.83L294.98 275.727C295.202 279.237 294.777 284.724 294.106 291.47C293.41 298.216 292.429 306.228 291.226 314.807L291.018 314.559C291.068 314.561 291.12 314.562 291.174 314.564C293.178 314.628 295.15 314.692 297.023 314.752L296.807 314.917C297.998 309.679 298.457 304.602 298.761 300.034C299.055 295.459 299.162 291.365 299.217 287.946C299.269 284.527 299.254 281.779 299.244 279.888C299.239 278.967 299.235 278.242 299.233 277.715C299.231 277.214 299.238 276.968 299.25 276.957C299.262 276.946 299.288 277.218 299.313 277.71C299.335 278.238 299.364 278.963 299.401 279.884C299.459 281.775 299.518 284.524 299.504 287.948C299.489 291.371 299.413 295.47 299.143 300.057C298.862 304.638 298.422 309.727 297.226 315.018L297.188 315.187L297.01 315.181C295.137 315.122 293.164 315.059 291.16 314.997C291.107 314.995 291.054 314.993 291.005 314.992L290.763 314.984L290.797 314.744C291.998 306.172 293.005 298.166 293.742 291.43C294.456 284.697 294.939 279.218 294.791 275.74L294.786 275.635L294.886 275.639C296.404 275.698 297.523 276.054 298.234 276.363C298.59 276.524 298.844 276.669 299.013 276.782C299.181 276.896 299.258 276.953 299.25 276.957Z" fill="#263238"/>
<path d="M292.982 311.32C292.982 312.312 293.786 313.116 294.778 313.116C295.771 313.116 296.575 312.312 296.575 311.32C296.575 310.327 295.771 309.523 294.778 309.523C293.786 309.523 292.982 310.328 292.982 311.32Z" fill="#E0E0E0"/>
<path d="M294.778 313.138C293.776 313.138 292.96 312.322 292.96 311.32C292.96 310.317 293.776 309.502 294.778 309.502C295.781 309.502 296.596 310.317 296.596 311.32C296.595 312.323 295.781 313.138 294.778 313.138ZM294.778 309.545C293.799 309.545 293.003 310.341 293.003 311.321C293.003 312.3 293.799 313.096 294.778 313.096C295.757 313.096 296.554 312.3 296.554 311.321C296.554 310.341 295.757 309.545 294.778 309.545Z" fill="#263238"/>
<path d="M255.523 312.516C256.516 312.516 257.32 311.712 257.32 310.72C257.32 309.728 256.516 308.924 255.523 308.924C254.531 308.924 253.727 309.728 253.727 310.72C253.727 311.712 254.531 312.516 255.523 312.516Z" fill="#E0E0E0"/>
<path d="M255.523 312.537C254.521 312.537 253.705 311.723 253.705 310.72C253.705 309.718 254.521 308.902 255.523 308.902C256.525 308.902 257.341 309.718 257.341 310.72C257.341 311.723 256.526 312.537 255.523 312.537ZM255.523 308.945C254.543 308.945 253.748 309.742 253.748 310.721C253.748 311.7 254.543 312.496 255.523 312.496C256.502 312.496 257.298 311.7 257.298 310.721C257.298 309.742 256.502 308.945 255.523 308.945Z" fill="#263238"/>
<path d="M291.39 329.72C291.397 329.72 291.402 329.814 291.404 329.995C291.403 330.201 291.401 330.467 291.4 330.802C291.388 331.511 291.37 332.557 291.265 333.902C291.153 335.243 290.974 336.898 290.421 338.747C289.898 340.606 288.804 342.567 287.258 344.429C284.243 348.257 278.795 351.193 272.44 352C270.847 352.182 269.196 352.217 267.521 352.066C265.853 351.918 264.124 351.542 262.55 350.752C259.374 349.229 256.704 346.509 254.981 343.225C253.249 339.927 252.524 336.286 252.403 332.812C252.379 331.935 252.358 331.087 252.431 330.211C252.477 329.775 252.559 329.331 252.763 328.916C252.96 328.503 253.309 328.136 253.739 327.954C254.615 327.598 255.476 327.765 256.276 327.769C257.09 327.801 257.894 327.833 258.689 327.865C265.043 328.126 270.766 328.362 275.584 328.559C280.371 328.772 284.255 328.945 286.972 329.065C288.294 329.133 289.331 329.186 290.067 329.224C290.401 329.246 290.667 329.263 290.872 329.277C291.053 329.291 291.145 329.302 291.145 329.309C291.145 329.317 291.052 329.321 290.87 329.321C290.665 329.318 290.399 329.315 290.064 329.312C289.327 329.293 288.289 329.267 286.965 329.233C284.246 329.146 280.362 329.021 275.572 328.865C270.753 328.694 265.029 328.49 258.673 328.264C257.879 328.235 257.074 328.206 256.259 328.176C255.45 328.165 254.598 328.036 253.907 328.332C253.207 328.625 252.914 329.444 252.849 330.251C252.782 331.07 252.802 331.941 252.827 332.795C252.953 336.221 253.671 339.797 255.365 343.022C257.047 346.231 259.655 348.885 262.733 350.367C264.263 351.136 265.916 351.499 267.559 351.651C269.2 351.804 270.827 351.775 272.394 351.6C278.661 350.823 284.025 347.97 287.021 344.23C288.565 342.401 289.651 340.497 290.188 338.673C290.756 336.859 290.958 335.219 291.095 333.885C291.226 332.548 291.271 331.504 291.311 330.797C291.33 330.463 291.346 330.196 291.358 329.992C291.372 329.813 291.382 329.72 291.39 329.72Z" fill="#263238"/>
<g opacity="0.3">
<path d="M244.771 353.133C245.229 350.043 244.307 346.979 242.341 344.552C240.375 342.125 237.366 340.574 234.249 340.379C233.896 329.86 234.667 319.303 236.545 308.946L228.204 342.308C228.204 342.308 239.819 342.468 240.041 352.137L244.771 353.133Z" fill="black"/>
</g>
<g opacity="0.3">
<path d="M253.637 226.112C254.513 219.282 256.916 212.652 260.621 206.847C261.029 206.208 261.462 205.397 261.078 204.743C260.75 204.183 259.94 204.072 259.347 204.337C258.754 204.601 258.335 205.138 257.96 205.669C253.878 211.452 252.301 218.943 253.705 225.881" fill="black"/>
</g>
<path d="M397.77 322.231L385.971 380.156H304.175H283.558C282.429 380.156 281.513 379.24 281.513 378.11C281.513 376.981 282.428 376.064 283.558 376.064H304.175L315.114 322.193C315.324 321.16 316.227 320.414 317.281 320.402L395.554 319.547C396.979 319.532 398.055 320.835 397.77 322.231Z" fill="#E0E0E0"/>
<path d="M397.77 322.231C397.77 322.231 397.783 322.173 397.802 322.057C397.821 321.941 397.836 321.763 397.812 321.53C397.771 321.083 397.528 320.33 396.729 319.837C396.533 319.716 396.302 319.629 396.052 319.569C395.8 319.512 395.525 319.516 395.247 319.519C394.685 319.523 394.07 319.528 393.404 319.533C392.07 319.544 390.531 319.557 388.796 319.571C381.849 319.637 371.765 319.733 359.2 319.852C352.915 319.915 346.011 319.985 338.568 320.059C334.847 320.098 330.99 320.138 327.011 320.178C325.021 320.199 322.999 320.22 320.948 320.241C319.922 320.252 318.89 320.263 317.849 320.274C317.586 320.28 317.338 320.269 317.057 320.293C316.783 320.321 316.514 320.399 316.266 320.521C315.77 320.764 315.362 321.188 315.142 321.7C315.027 321.956 314.979 322.234 314.928 322.487L314.769 323.266C314.663 323.786 314.557 324.308 314.451 324.832C314.238 325.88 314.023 326.934 313.807 327.995C313.375 330.116 312.938 332.265 312.496 334.438C311.612 338.786 310.706 343.234 309.783 347.775C307.937 356.856 306.016 366.303 304.038 376.036L304.175 375.924C300.303 375.924 296.335 375.923 292.302 375.923C290.285 375.923 288.252 375.923 286.207 375.923H284.671H283.901C283.652 375.926 283.377 375.91 283.104 375.971C282.563 376.082 282.075 376.412 281.762 376.865C281.445 377.317 281.315 377.895 281.399 378.44C281.493 379.111 281.927 379.712 282.517 380.033C282.813 380.191 283.145 380.281 283.48 380.293L284.425 380.297C285.678 380.297 286.927 380.297 288.172 380.297C290.663 380.297 293.139 380.297 295.6 380.297C300.52 380.297 305.378 380.296 310.161 380.296C319.727 380.293 328.998 380.291 337.887 380.289C355.664 380.28 371.918 380.271 385.972 380.265H386.06L386.078 380.178C389.684 362.374 392.618 347.891 394.65 337.854C395.66 332.839 396.444 328.936 396.978 326.282C397.241 324.959 397.441 323.948 397.577 323.263C397.71 322.581 397.77 322.231 397.77 322.231C397.77 322.231 397.689 322.577 397.545 323.256C397.403 323.939 397.192 324.948 396.916 326.268C396.368 328.92 395.565 332.819 394.531 337.829C392.476 347.861 389.511 362.338 385.865 380.134L385.971 380.047C371.917 380.04 355.663 380.032 337.886 380.023C328.997 380.02 319.727 380.019 310.16 380.016C305.377 380.015 300.519 380.015 295.599 380.015C293.138 380.015 290.662 380.015 288.171 380.014C286.926 380.014 285.677 380.014 284.424 380.014L283.489 380.01C283.197 380 282.909 379.922 282.651 379.784C282.138 379.504 281.759 378.98 281.678 378.397C281.605 377.921 281.718 377.421 281.994 377.026C282.266 376.631 282.693 376.344 283.162 376.247C283.394 376.195 283.638 376.207 283.901 376.206H284.671H286.207C288.253 376.206 290.285 376.206 292.302 376.206C296.335 376.206 300.303 376.205 304.175 376.205H304.289L304.312 376.092C306.286 366.359 308.202 356.911 310.045 347.829C310.965 343.288 311.867 338.838 312.748 334.49C313.189 332.316 313.624 330.167 314.054 328.046C314.27 326.985 314.483 325.931 314.695 324.883C314.801 324.359 314.907 323.837 315.013 323.317L315.17 322.538C315.224 322.273 315.266 322.026 315.369 321.8C315.566 321.342 315.93 320.962 316.374 320.744C316.596 320.634 316.837 320.565 317.082 320.539C317.321 320.518 317.596 320.526 317.852 320.52C318.892 320.508 319.925 320.495 320.95 320.484C323.001 320.46 325.022 320.437 327.012 320.414C330.992 320.369 334.848 320.324 338.57 320.281C346.012 320.193 352.916 320.113 359.2 320.038C371.766 319.883 381.849 319.758 388.796 319.673C390.531 319.65 392.07 319.629 393.404 319.611C394.07 319.601 394.685 319.592 395.246 319.585C395.528 319.58 395.792 319.574 396.039 319.627C396.283 319.684 396.509 319.766 396.701 319.883C397.487 320.358 397.736 321.092 397.785 321.535C397.833 321.995 397.755 322.23 397.77 322.231Z" fill="#263238"/>
<path d="M350.578 348.74C350.578 350.608 352.092 352.122 353.96 352.122C355.829 352.122 357.343 350.608 357.343 348.74C357.343 346.871 355.829 345.357 353.96 345.357C352.092 345.358 350.578 346.872 350.578 348.74Z" fill="white"/>
<path d="M397.675 322.7C397.675 322.7 397.556 322.691 397.323 322.688C397.079 322.686 396.735 322.685 396.287 322.682C395.366 322.683 394.027 322.685 392.305 322.687C388.838 322.704 383.837 322.728 377.662 322.758C365.289 322.846 348.213 322.966 329.352 323.099C326.992 323.118 324.662 323.137 322.364 323.155C321.79 323.16 321.218 323.164 320.648 323.169C320.37 323.175 320.073 323.158 319.771 323.222C319.476 323.282 319.193 323.397 318.941 323.559C318.434 323.88 318.054 324.393 317.902 324.968C317.774 325.534 317.678 326.071 317.565 326.619C316.7 330.983 315.864 335.192 315.069 339.201C313.484 347.219 312.057 354.441 310.857 360.509C309.67 366.569 308.708 371.476 308.042 374.879C307.718 376.569 307.464 377.885 307.291 378.789C307.209 379.229 307.146 379.568 307.102 379.807C307.061 380.037 307.047 380.156 307.047 380.156C307.047 380.156 307.08 380.04 307.13 379.813C307.181 379.575 307.253 379.238 307.347 378.8C307.532 377.899 307.803 376.588 308.15 374.901C308.837 371.504 309.828 366.602 311.053 360.549C312.269 354.484 313.717 347.267 315.324 339.254C316.124 335.245 316.965 331.037 317.837 326.675C317.947 326.135 318.05 325.571 318.169 325.043C318.305 324.533 318.641 324.08 319.09 323.796C319.314 323.653 319.565 323.551 319.826 323.498C320.083 323.44 320.359 323.456 320.65 323.451C321.219 323.447 321.792 323.442 322.366 323.438C324.663 323.42 326.994 323.402 329.353 323.384C348.214 323.218 365.29 323.068 377.664 322.96C383.838 322.892 388.839 322.837 392.306 322.799C394.028 322.774 395.367 322.754 396.288 322.741C396.735 322.731 397.08 322.724 397.323 322.718C397.555 322.71 397.675 322.7 397.675 322.7Z" fill="#263238"/>
<path d="M231.466 169.101C234.317 170.797 238.394 169.976 240.368 167.309C242.341 164.642 241.935 160.503 239.48 158.272C242.211 157.196 244.093 154.265 243.933 151.334C243.773 148.404 241.584 145.694 238.752 144.923C239.83 142.232 239.391 138.99 237.636 136.683C235.881 134.376 232.874 133.088 229.993 133.409C228.2 129.593 223.536 127.381 219.447 128.408C217.094 126.78 213.68 126.887 211.433 128.66C209.187 130.434 208.29 133.729 209.329 136.397" fill="#263238"/>
<path d="M231.972 170.37C237.012 156.273 230.38 140.672 216.733 134.516L215.377 133.904C200.371 128.162 187.111 137.698 181.787 152.857L158.453 205.09L170.496 243.81L188.493 224.587L197.238 214.475C197.238 214.475 212.279 218.631 218.792 204.656C221.938 197.907 227.285 183.482 231.972 170.37Z" fill="#AE7461"/>
<path d="M197.364 214.507C197.364 214.507 188.146 210.999 181.382 200.811C181.382 200.811 179.91 212.418 194.503 217.479L197.364 214.507Z" fill="#6F4439"/>
<path d="M222.52 181.488C222.079 182.565 220.804 183.08 219.671 182.64C218.541 182.201 217.978 180.975 218.419 179.898C218.859 178.821 220.134 178.305 221.265 178.744C222.399 179.183 222.96 180.413 222.52 181.488Z" fill="#263238"/>
<path d="M225.85 175.883C225.483 176.032 224.47 174.222 222.309 173.253C220.163 172.254 218.077 172.65 217.962 172.28C217.899 172.111 218.366 171.752 219.283 171.561C220.188 171.367 221.566 171.404 222.909 172.016C224.251 172.63 225.159 173.635 225.58 174.436C226.014 175.247 226.025 175.821 225.85 175.883Z" fill="#263238"/>
<path d="M202.671 173.017C202.231 174.093 200.956 174.608 199.823 174.168C198.692 173.73 198.13 172.502 198.57 171.425C199.011 170.35 200.287 169.833 201.418 170.272C202.55 170.711 203.112 171.94 202.671 173.017Z" fill="#263238"/>
<path d="M204.441 166.709C204.074 166.858 203.059 165.047 200.898 164.08C198.753 163.081 196.666 163.477 196.551 163.107C196.489 162.939 196.953 162.579 197.873 162.389C198.778 162.195 200.156 162.231 201.499 162.844C202.84 163.457 203.749 164.464 204.171 165.264C204.603 166.072 204.615 166.647 204.441 166.709Z" fill="#263238"/>
<path d="M205.053 186.261C205.098 186.133 206.545 186.507 208.846 187.21C209.423 187.401 209.995 187.527 210.257 187.193C210.567 186.854 210.604 186.155 210.627 185.392C210.71 183.824 210.799 182.181 210.89 180.458C211.322 173.457 211.901 167.802 212.183 167.822C212.465 167.842 212.343 173.532 211.91 180.532C211.79 182.252 211.678 183.893 211.567 185.461C211.493 186.181 211.532 187.055 210.877 187.754C210.542 188.1 210.003 188.216 209.607 188.152C209.205 188.1 208.892 187.966 208.612 187.859C206.368 186.989 205.006 186.386 205.053 186.261Z" fill="#263238"/>
<path d="M208.412 159.653C207.88 160.072 206.297 158.644 204.052 157.543C201.832 156.391 199.718 155.954 199.766 155.291C199.799 154.98 200.425 154.67 201.444 154.602C202.457 154.531 203.848 154.751 205.187 155.426C206.525 156.103 207.51 157.081 208.03 157.926C208.558 158.774 208.657 159.449 208.412 159.653Z" fill="#263238"/>
<path d="M229.561 168.356C228.885 168.641 227.333 167.328 225.199 166.337C223.096 165.285 221.093 164.881 220.907 164.18C220.836 163.848 221.343 163.485 222.345 163.379C223.335 163.269 224.813 163.48 226.269 164.182C227.724 164.885 228.8 165.906 229.319 166.745C229.849 167.591 229.87 168.208 229.561 168.356Z" fill="#263238"/>
<path d="M177.876 167.554C178.765 165.345 177.67 162.789 175.415 162.02C172.682 161.087 169.094 161.26 166.824 166.753C162.797 176.499 173.412 178.532 173.545 178.259C173.634 178.075 176.226 171.647 177.876 167.554Z" fill="#AE7461"/>
<path d="M172.939 173.716C172.909 173.668 172.72 173.766 172.379 173.778C172.046 173.791 171.529 173.681 171.098 173.28C170.225 172.477 170.033 170.484 170.712 168.707C171.054 167.811 171.589 167.043 172.192 166.473C172.784 165.883 173.451 165.576 174.007 165.697C174.572 165.791 174.811 166.253 174.816 166.576C174.835 166.903 174.692 167.072 174.737 167.11C174.755 167.146 175.014 167.033 175.102 166.598C175.141 166.388 175.122 166.111 174.971 165.829C174.816 165.542 174.511 165.303 174.134 165.193C173.361 164.934 172.399 165.346 171.736 165.971C171.031 166.582 170.409 167.436 170.025 168.444C169.276 170.434 169.521 172.687 170.762 173.676C171.374 174.138 172.031 174.168 172.422 174.06C172.824 173.945 172.965 173.748 172.939 173.716Z" fill="#6F4439"/>
<path d="M233.003 146.782C233.024 146.504 233.015 146.219 232.976 145.946C232.679 143.868 231.263 142.053 229.423 141.064C228.538 139.957 227.613 138.971 226.694 138.13C226.376 135.247 224.71 132.504 222.196 131.035C219.342 129.367 215.594 129.445 212.76 131.124C212.341 131.002 211.917 130.891 211.492 130.783C210.162 128.459 207.816 126.724 205.187 126.193C202.239 125.596 199.024 126.524 196.847 128.599C194.787 126.931 191.716 126.632 189.374 127.875C187.032 129.117 185.556 131.827 185.782 134.468C183.61 134.676 181.357 135.725 180.424 137.698C179.547 139.554 180.432 142.164 182.332 142.755C179.917 147.204 177.966 152.851 176.051 157.739C174.702 161.182 178.084 165.113 177.348 167.53C173.586 179.863 180.303 175.138 192.654 151.667C192.98 151.589 193.315 151.5 193.667 151.388C194.376 151.161 194.757 150.637 195.43 150.318C196.233 149.938 197.113 150.569 197.88 151.017C200.539 152.574 204.292 151.889 206.228 149.492C206.459 150.88 208.143 151.584 209.534 151.375C210.926 151.167 212.133 150.342 213.413 149.756C214.692 149.171 216.267 148.841 217.455 149.595C218.12 150.016 218.595 150.739 219.337 150.997C220.65 151.454 221.932 150.255 222.688 149.089C223.324 148.107 224.002 146.972 225.021 146.516C225.953 146.507 226.875 146.596 227.776 146.921C228.23 147.19 228.67 147.506 229.104 147.785C229.307 147.915 229.531 148.028 229.762 148.131C230.002 148.351 230.241 148.594 230.476 148.876C233.793 152.844 233.529 163.316 233.529 163.316C236.341 157.875 235.406 151.86 233.003 146.782Z" fill="#263238"/>
<path d="M205.399 131.353C205.391 131.342 205.468 131.272 205.624 131.146C205.777 131.018 206.021 130.846 206.352 130.655C207.011 130.274 208.061 129.81 209.459 129.667C210.84 129.522 212.607 129.729 214.24 130.724C215.858 131.691 217.329 133.403 217.901 135.592L217.619 135.443C218.565 135.097 219.596 134.843 220.667 134.751C223.257 134.494 225.822 135.301 227.516 136.816C229.242 138.294 230.101 140.349 230.075 142.061C230.077 143.782 229.459 145.098 228.889 145.844C228.606 146.224 228.341 146.482 228.153 146.644C227.96 146.8 227.855 146.875 227.845 146.863C227.811 146.828 228.239 146.516 228.75 145.747C229.262 144.994 229.809 143.709 229.768 142.067C229.754 140.436 228.913 138.514 227.256 137.12C225.628 135.695 223.198 134.94 220.706 135.184C219.676 135.272 218.681 135.515 217.768 135.845L217.545 135.926L217.486 135.698C216.957 133.632 215.574 131.987 214.044 131.046C212.503 130.078 210.824 129.846 209.484 129.948C208.131 130.049 207.094 130.457 206.425 130.79C205.753 131.129 205.42 131.383 205.399 131.353Z" fill="white"/>
<path d="M184.305 134.411C184.301 134.403 184.352 134.37 184.457 134.312C184.564 134.257 184.718 134.162 184.934 134.073C185.366 133.899 186.036 133.689 186.925 133.659C187.805 133.639 188.916 133.774 190.045 134.332C191.171 134.861 192.339 135.829 193.01 137.274L192.714 137.237C193.996 135.548 196.294 134.361 198.856 134.221C200.133 134.144 201.478 134.296 202.777 134.724C204.077 135.156 205.314 135.844 206.449 136.705C208.658 138.395 210.266 140.567 211.519 142.633L211.199 142.592C213.059 140.807 215.472 140.014 217.583 140.004C219.721 139.983 221.525 140.757 222.781 141.633C224.053 142.521 224.816 143.516 225.26 144.218C225.482 144.572 225.631 144.858 225.716 145.058C225.805 145.257 225.845 145.362 225.834 145.367C225.803 145.382 225.615 144.971 225.146 144.294C224.673 143.626 223.895 142.68 222.637 141.845C221.393 141.021 219.641 140.308 217.588 140.355C215.559 140.389 213.249 141.175 211.487 142.887L211.302 143.067L211.166 142.846C209.919 140.814 208.331 138.69 206.186 137.05C205.086 136.216 203.888 135.548 202.644 135.131C201.401 134.717 200.108 134.565 198.882 134.632C196.419 134.753 194.228 135.865 192.99 137.451L192.812 137.678L192.694 137.414C192.084 136.055 190.994 135.112 189.923 134.583C188.85 134.025 187.782 133.867 186.929 133.856C185.189 133.874 184.326 134.488 184.305 134.411Z" fill="white"/>
<path d="M225.394 145.938C225.402 145.95 225.282 146.048 225.061 146.236C224.849 146.437 224.545 146.742 224.198 147.182C223.847 147.619 223.449 148.183 222.962 148.831C222.461 149.457 221.916 150.255 220.954 150.771C220.471 151.015 219.843 151.081 219.279 150.88C218.709 150.698 218.211 150.349 217.694 150.037C217.18 149.729 216.622 149.437 216.008 149.419C215.392 149.404 214.749 149.611 214.12 149.872C213.489 150.137 212.855 150.475 212.195 150.798C211.553 151.116 210.883 151.552 210.065 151.682C209.264 151.816 208.425 151.713 207.641 151.438C207.248 151.298 206.86 151.112 206.513 150.837C206.166 150.573 205.865 150.163 205.8 149.674L206.178 149.776C205.79 150.269 205.342 150.735 204.806 151.107C204.267 151.47 203.664 151.754 203.024 151.938C201.736 152.283 200.329 152.239 199.019 151.835C198.471 151.682 197.957 151.444 197.456 151.195C196.949 150.91 196.551 150.603 196.06 150.567C195.565 150.509 195.118 150.644 194.66 150.917C194.184 151.172 193.69 151.381 193.191 151.558C191.212 152.253 189.029 152.444 187.201 151.641C185.412 150.786 184.22 149.233 183.567 147.675C182.917 146.095 182.815 144.456 183.116 143.07L183.232 143.246C181.887 142.95 180.92 142.029 180.446 141.088C179.956 140.129 179.968 139.158 180.129 138.448C180.292 137.725 180.599 137.228 180.828 136.924C180.946 136.773 181.043 136.665 181.116 136.599C181.187 136.532 181.225 136.5 181.23 136.505C181.292 136.533 180.583 137.07 180.288 138.482C180.157 139.17 180.172 140.091 180.654 140.98C181.118 141.858 182.048 142.703 183.292 142.956L183.437 142.985L183.407 143.132C183.14 144.463 183.256 146.033 183.894 147.539C184.528 149.022 185.701 150.499 187.363 151.279C189.052 152.014 191.144 151.838 193.049 151.159C193.529 150.987 194.004 150.785 194.46 150.539C194.903 150.266 195.527 150.056 196.111 150.14C196.405 150.173 196.693 150.265 196.956 150.404L197.661 150.815C198.137 151.051 198.625 151.278 199.145 151.421C200.387 151.805 201.711 151.844 202.911 151.526C203.507 151.355 204.065 151.094 204.565 150.76C205.062 150.417 205.478 149.987 205.842 149.529L206.154 149.137L206.22 149.63C206.314 150.34 207.08 150.805 207.78 151.054C208.508 151.313 209.278 151.409 210.002 151.293C210.723 151.186 211.359 150.786 212.027 150.459C212.691 150.141 213.326 149.807 213.984 149.539C214.638 149.276 215.317 149.055 216.023 149.079C216.737 149.11 217.342 149.447 217.863 149.767C218.386 150.093 218.864 150.433 219.373 150.602C219.877 150.788 220.405 150.738 220.841 150.531C221.719 150.087 222.292 149.314 222.799 148.706C223.298 148.075 223.716 147.52 224.088 147.093C224.457 146.663 224.784 146.368 225.015 146.183C225.254 146.005 225.388 145.929 225.394 145.938Z" fill="#455A64"/>
<path d="M21.6531 329.471C21.6531 329.471 17.3455 340.951 15.8368 344.032C14.3281 347.112 15.8368 380.296 15.8368 380.296H113.999L115.386 351.111L68.1278 322.618L21.6531 329.471Z" fill="#263238"/>
<path d="M230.277 283L268.915 290.293C268.915 290.293 268.181 307.003 268.671 306.587C269.162 306.17 214.514 306.074 214.514 306.074L230.277 283Z" fill="#AE7461"/>
<path d="M268.231 290.254L295.013 298.521L306.774 306.789L317.254 318.083C317.254 318.083 317.138 321.228 313.179 319.248C309.22 317.268 305.377 313.542 305.377 313.542L313.179 327.865C313.179 327.865 310.034 331.01 307.472 326.468C304.91 321.926 301.068 316.104 301.068 316.104L298.74 314.358C298.74 314.358 301.185 318.666 301.185 319.831C301.185 320.995 298.74 327.516 298.74 327.516L294.897 332.756C294.897 332.756 292.568 332.523 292.742 330.078C292.917 327.633 294.314 325.886 294.314 325.886L289.657 329.962C289.657 329.962 288.026 329.03 289.424 326.003L291.17 324.14L291.752 321.228L290.355 319.016C290.355 319.016 286.745 319.248 283.95 315.057C281.156 310.865 276.847 311.68 270.792 308.07C264.737 304.461 265.32 300.502 265.32 300.502L268.231 290.254Z" fill="#AE7461"/>
<path d="M282.609 300.462C282.696 300.444 282.683 301.805 283.623 303.687C284.089 304.62 284.782 305.665 285.719 306.683C286.647 307.711 287.803 308.715 289.053 309.732C290.286 310.756 291.572 311.667 292.429 312.846C293.292 314.006 293.604 315.42 293.269 316.499C292.922 317.589 292.086 318.147 291.509 318.312C291.213 318.399 290.971 318.403 290.812 318.39C290.653 318.37 290.574 318.346 290.576 318.332C290.576 318.288 290.917 318.358 291.454 318.152C291.972 317.955 292.704 317.394 292.973 316.416C293.238 315.44 292.931 314.157 292.107 313.084C291.291 311.992 290.024 311.1 288.778 310.068C287.522 309.046 286.355 308.016 285.42 306.95C284.477 305.892 283.788 304.795 283.345 303.818C282.898 302.839 282.703 301.981 282.629 301.388C282.558 300.794 282.586 300.463 282.609 300.462Z" fill="#6F4439"/>
<path d="M305.125 312.91C305.11 312.936 304.854 312.823 304.402 312.596C303.951 312.368 303.307 312.024 302.518 311.584C300.942 310.704 298.791 309.441 296.466 307.964C294.613 306.789 292.928 305.656 291.593 304.723L291.746 304.744C290.549 305.111 289.561 305.405 288.871 305.598C288.18 305.79 287.786 305.882 287.774 305.848C287.763 305.814 288.137 305.657 288.809 305.407C289.481 305.158 290.453 304.816 291.637 304.411L291.715 304.384L291.79 304.433C293.205 305.346 294.883 306.427 296.699 307.598C299.018 309.072 301.14 310.374 302.674 311.32C304.21 312.263 305.156 312.856 305.125 312.91Z" fill="#6F4439"/>
<path d="M298.605 313.365C298.693 313.434 297.876 314.345 296.467 314.708C295.062 315.085 293.902 314.694 293.946 314.591C293.968 314.463 295.071 314.637 296.357 314.288C297.648 313.96 298.523 313.265 298.605 313.365Z" fill="#6F4439"/>
<path d="M294.128 316.114C294.242 316.083 295.026 318.252 295.869 320.998C296.107 321.741 295.904 322.531 295.638 323.092C295.372 323.672 295.083 324.142 294.887 324.557C294.466 325.378 294.52 325.961 294.445 325.966C294.4 325.989 294.231 325.343 294.605 324.436C294.772 323.986 295.04 323.489 295.269 322.934C295.499 322.377 295.651 321.757 295.449 321.11C294.616 318.397 294.011 316.147 294.128 316.114Z" fill="#6F4439"/>
<path d="M18.9752 323.71L53.4169 286.533C53.4169 286.533 98.7364 208.715 107.749 201.542C130.291 183.602 155.878 192.995 155.878 192.995L164.995 189.534L180.357 228.556C180.357 228.556 174.664 236.89 174.095 238.557C173.525 240.225 105.212 343.573 105.212 343.573L80.8029 377.756C80.8029 377.756 42.9735 370.675 26.7831 350.01C19.383 340.565 18.9752 323.71 18.9752 323.71Z" fill="#455A64"/>
<path d="M184.174 227.688L189.226 223.38L189.283 236.523L198.019 248.862C198.019 248.862 172.45 279.66 167.191 284.793C161.933 289.926 119.863 339.872 119.863 339.872C119.863 339.872 117.638 363.561 114.807 370.273C111.975 376.985 92.8742 375.219 92.8742 375.219L102.366 348.037L106.312 328.423L154.044 265.25L172.781 240.721L184.174 227.688Z" fill="#455A64"/>
<path d="M171.388 269.949C171.388 270.733 197.365 295.565 197.365 295.565C197.365 295.565 199.24 300.271 201.383 301.055C203.525 301.839 214.237 306.805 214.237 306.805L231.02 282.757C231.02 282.757 222.54 274.915 220.128 273.608C217.718 272.301 211.917 265.549 211.917 265.549L192.473 242.203L177.547 249.817L171.388 269.949Z" fill="#455A64"/>
<path d="M172.782 240.72C172.775 240.715 172.813 240.636 172.897 240.487C172.997 240.313 173.121 240.098 173.273 239.833C173.635 239.23 174.132 238.403 174.756 237.362C176.081 235.201 177.946 232.156 180.208 228.465L180.402 228.727C176.341 229.81 171.512 231.097 166.272 232.494L166.065 232.549L166.01 232.342C165.531 230.526 165.032 228.631 164.522 226.699C162.105 217.417 159.919 209.018 158.323 202.89C157.558 199.869 156.935 197.41 156.493 195.662C156.293 194.837 156.134 194.18 156.016 193.691C155.912 193.239 155.865 193.001 155.879 192.997C155.893 192.993 155.97 193.224 156.101 193.669C156.238 194.152 156.423 194.802 156.656 195.619C157.131 197.359 157.799 199.805 158.62 202.811C160.247 208.931 162.478 217.32 164.943 226.588C165.451 228.521 165.948 230.417 166.425 232.232L166.163 232.08C171.41 230.71 176.246 229.448 180.312 228.388L180.743 228.275L180.506 228.649C178.191 232.307 176.281 235.325 174.926 237.466C174.267 238.486 173.743 239.297 173.362 239.888C173.192 240.142 173.053 240.348 172.942 240.515C172.843 240.655 172.79 240.724 172.782 240.72Z" fill="#263238"/>
<path d="M189.28 236.056C189.293 236.072 189.135 236.222 188.828 236.489C188.466 236.792 188.019 237.168 187.478 237.623C186.238 238.63 184.572 239.983 182.597 241.586L182.245 241.872L182.293 241.418C182.56 238.911 182.871 235.985 183.203 232.864C183.305 231.949 183.404 231.05 183.499 230.191L183.86 230.369C180.861 233.219 178.204 235.717 176.288 237.492C175.365 238.336 174.605 239.032 174.018 239.568C173.48 240.049 173.177 240.302 173.158 240.283C173.139 240.264 173.406 239.972 173.912 239.457C174.474 238.897 175.206 238.17 176.092 237.288C177.956 235.457 180.576 232.921 183.563 230.06L183.989 229.653L183.925 230.238C183.832 231.097 183.734 231.997 183.634 232.913C183.281 236.031 182.95 238.955 182.666 241.461L182.362 241.293C184.377 239.739 186.076 238.429 187.341 237.453C187.908 237.031 188.377 236.682 188.755 236.401C189.086 236.16 189.268 236.04 189.28 236.056Z" fill="#263238"/>
<path d="M192.474 254.614C192.486 254.623 192.406 254.744 192.244 254.968C192.047 255.228 191.807 255.547 191.516 255.932C190.878 256.764 189.938 257.955 188.765 259.417C186.418 262.341 183.119 266.335 179.387 270.671C175.652 275.007 172.191 278.863 169.648 281.618C168.377 282.996 167.339 284.102 166.611 284.857C166.273 285.201 165.994 285.486 165.765 285.719C165.568 285.913 165.46 286.01 165.448 285.999C165.437 285.989 165.524 285.873 165.7 285.66C165.912 285.412 166.171 285.11 166.486 284.743C167.222 283.908 168.214 282.782 169.42 281.413C171.903 278.606 175.325 274.722 179.057 270.389C182.787 266.056 186.12 262.095 188.527 259.223C189.702 257.827 190.667 256.679 191.385 255.826C191.701 255.461 191.962 255.16 192.175 254.913C192.36 254.707 192.462 254.604 192.474 254.614Z" fill="#263238"/>
<path d="M218.94 273.736C218.964 273.755 218.735 274.097 218.3 274.699C217.868 275.303 217.219 276.16 216.401 277.207C214.764 279.298 212.417 282.126 209.657 285.097C206.893 288.067 204.244 290.614 202.277 292.399C201.293 293.291 200.484 294 199.914 294.475C199.344 294.952 199.021 295.206 199.001 295.183C198.981 295.161 199.267 294.866 199.801 294.35C200.396 293.778 201.157 293.048 202.067 292.175C203.976 290.336 206.583 287.763 209.338 284.802C212.09 281.839 214.466 279.053 216.162 277.015C216.967 276.044 217.64 275.232 218.167 274.596C218.641 274.025 218.916 273.718 218.94 273.736Z" fill="#263238"/>
<path d="M88.9828 367.215C88.9828 367.215 89.0453 367.097 89.1846 366.878C89.3364 366.645 89.5449 366.324 89.8135 365.912C90.3856 365.052 91.2096 363.812 92.2654 362.224C94.4238 359.015 97.5271 354.402 101.358 348.709C109.047 337.305 119.723 321.588 131.382 304.141C143.013 286.665 153.514 270.831 160.467 258.959C164.04 253.081 167.149 248.45 169.479 245.386C170.632 243.847 171.57 242.681 172.225 241.909C172.544 241.535 172.791 241.244 172.972 241.032C173.143 240.836 173.238 240.742 173.238 240.742C173.238 240.742 173.166 240.855 173.007 241.06C172.834 241.279 172.598 241.579 172.294 241.964C171.661 242.753 170.746 243.933 169.615 245.486C167.33 248.577 164.268 253.223 160.729 259.118C153.844 271.03 143.372 286.909 131.743 304.382C120.083 321.831 109.367 337.521 101.612 348.881C97.734 354.543 94.5914 359.13 92.4055 362.319C91.3205 363.888 90.474 365.112 89.886 365.962C89.6025 366.363 89.3823 366.676 89.2222 366.903C89.0695 367.113 88.9828 367.215 88.9828 367.215Z" fill="#263238"/>
<path d="M90.8952 325.822C90.8852 325.834 90.7634 325.747 90.539 325.571C90.2797 325.36 89.9611 325.102 89.5733 324.787C88.7384 324.102 87.5542 323.081 86.113 321.796C83.229 319.226 79.3526 315.551 75.301 311.268C71.2528 306.979 67.8034 302.9 65.4014 299.875C64.1997 298.363 63.2481 297.123 62.6109 296.251C62.319 295.846 62.078 295.514 61.8828 295.243C61.7202 295.009 61.6409 294.882 61.6526 294.873C61.6643 294.864 61.7677 294.973 61.952 295.189C62.1647 295.446 62.4266 295.763 62.7443 296.147C63.4691 297.031 64.4482 298.226 65.6391 299.68C68.0978 302.652 71.5764 306.69 75.6154 310.969C79.6578 315.244 83.4917 318.945 86.3182 321.569C87.7026 322.841 88.8402 323.886 89.6825 324.66C90.0478 324.999 90.3489 325.278 90.5941 325.505C90.8018 325.702 90.9052 325.811 90.8952 325.822Z" fill="#263238"/>
<path d="M144.114 205.339C144.075 205.363 143.747 204.795 143.006 203.881C142.255 202.983 141.044 201.758 139.246 200.674C137.457 199.576 135.099 198.684 132.4 198.009C129.708 197.332 126.661 196.83 123.462 196.965C120.266 197.098 117.265 197.922 114.839 199.256C112.393 200.563 110.51 202.266 109.143 203.85C107.778 205.447 106.905 206.921 106.358 207.961C105.805 209.001 105.564 209.612 105.522 209.594C105.508 209.588 105.559 209.433 105.67 209.141C105.781 208.849 105.942 208.417 106.207 207.885C106.711 206.814 107.553 205.297 108.909 203.651C110.266 202.017 112.162 200.258 114.649 198.904C117.116 197.522 120.189 196.666 123.444 196.531C126.702 196.394 129.788 196.917 132.5 197.622C135.216 198.324 137.606 199.261 139.407 200.413C141.219 201.552 142.419 202.835 143.138 203.776C143.486 204.259 143.747 204.639 143.894 204.916C144.052 205.187 144.128 205.332 144.114 205.339Z" fill="#263238"/>
<path d="M102.367 216.417C102.367 216.417 100.897 267.982 102.367 292.42C102.816 299.879 105.587 304.811 106.158 304.98C107.657 305.422 137.937 302.86 137.937 302.86C137.937 302.86 138.18 293.606 140.464 290.135C142.748 286.665 136.894 288.113 136.894 288.113C136.894 288.113 149.398 224.552 147.835 212.857" fill="#455A64"/>
<path d="M147.836 212.858C147.836 212.858 147.916 213.352 147.982 214.312C148.019 215.273 148.041 216.699 147.934 218.542C147.756 222.231 147.199 227.588 146.289 234.287C144.47 247.686 141.282 266.465 137.1 288.154L136.846 287.913C137.615 287.738 138.387 287.614 139.192 287.607C139.593 287.606 140.004 287.634 140.417 287.777C140.621 287.854 140.832 287.971 140.989 288.167C141.148 288.362 141.21 288.623 141.203 288.855C141.167 289.317 140.971 289.698 140.765 290.05C140.552 290.405 140.369 290.713 140.197 291.066C139.876 291.77 139.613 292.511 139.414 293.277C138.606 296.34 138.297 299.596 138.153 302.866L138.145 303.06L137.956 303.075C133.833 303.408 129.478 303.76 125.061 304.117C121.334 304.403 117.651 304.678 114.016 304.912C112.198 305.024 110.396 305.141 108.599 305.206C108.151 305.228 107.702 305.238 107.251 305.238C107.021 305.234 106.814 305.258 106.562 305.227L106.198 305.195C106.112 305.227 105.861 305.054 105.819 304.981C105.192 304.238 104.845 303.431 104.47 302.617C103.071 299.341 102.379 295.877 102.163 292.477C102.081 290.783 101.998 289.106 101.917 287.448C101.863 285.79 101.811 284.151 101.758 282.532C101.442 269.577 101.526 257.91 101.635 248.116C101.751 238.321 101.929 230.396 102.074 224.92C102.157 222.193 102.22 220.072 102.264 218.615C102.293 217.905 102.313 217.36 102.329 216.976C102.347 216.607 102.367 216.418 102.367 216.418C102.367 216.418 102.376 216.607 102.374 216.978C102.368 217.362 102.361 217.908 102.352 218.618C102.327 220.075 102.29 222.197 102.243 224.924C102.151 230.401 102.019 238.326 101.941 248.119C101.872 257.912 101.821 269.578 102.157 282.521C102.213 284.138 102.268 285.775 102.325 287.432C102.409 289.087 102.493 290.761 102.577 292.452C102.792 295.809 103.484 299.235 104.86 302.447C105.212 303.228 105.6 304.064 106.122 304.681C106.157 304.727 106.187 304.747 106.199 304.752C106.202 304.772 106.245 304.782 106.302 304.781L106.604 304.803C106.795 304.829 107.035 304.808 107.251 304.811C107.693 304.81 108.136 304.8 108.584 304.778C110.371 304.713 112.173 304.594 113.989 304.483C117.619 304.247 121.302 303.971 125.027 303.685C129.443 303.329 133.798 302.979 137.92 302.647L137.723 302.856C137.872 299.55 138.18 296.291 139.006 293.167C139.21 292.387 139.48 291.623 139.817 290.887C140.158 290.143 140.726 289.512 140.784 288.84C140.801 288.517 140.605 288.291 140.273 288.172C139.946 288.057 139.568 288.025 139.194 288.026C138.443 288.031 137.677 288.152 136.946 288.317L136.632 288.388L136.693 288.075C140.901 266.4 144.142 247.635 146.032 234.253C146.977 227.563 147.575 222.216 147.796 218.537C147.924 216.698 147.925 215.276 147.911 214.316C147.904 213.837 147.858 213.474 147.85 213.23C147.834 212.984 147.836 212.858 147.836 212.858Z" fill="#263238"/>
<path d="M137.849 288.433C137.854 288.462 137.388 288.556 136.541 288.699C135.693 288.843 134.464 289.023 132.939 289.207C129.891 289.586 125.661 289.963 120.978 290.164C116.294 290.363 112.047 290.349 108.978 290.231C107.443 290.178 106.202 290.104 105.347 290.033C104.491 289.963 104.019 289.909 104.021 289.879C104.022 289.849 104.498 289.845 105.355 289.863C106.289 289.878 107.511 289.899 108.985 289.923C112.05 289.962 116.286 289.928 120.96 289.73C125.632 289.528 129.855 289.201 132.905 288.901C134.372 288.751 135.588 288.627 136.517 288.531C137.371 288.44 137.845 288.403 137.849 288.433Z" fill="#263238"/>
<path d="M106.158 304.98L123.962 379.924H141.764L136.785 303.072L106.158 304.98Z" fill="#AE7461"/>
<path d="M140.182 369.32L157.925 372.422L173.898 377.252C175.378 377.756 176.325 378.613 175.732 380.467L123.961 379.923V370.924L140.182 369.32Z" fill="#AE7461"/>
<path d="M168.565 380.392C168.516 380.386 168.637 380.017 168.536 379.379C168.452 378.752 167.913 377.868 166.822 377.473C165.751 377.071 164.301 377.081 162.748 376.892C161.176 376.732 159.463 376.558 157.666 376.375C154.061 375.996 150.801 375.629 148.443 375.341C147.334 375.197 146.4 375.075 145.653 374.978C144.995 374.883 144.633 374.816 144.636 374.786C144.64 374.756 145.008 374.766 145.671 374.81C146.422 374.871 147.36 374.946 148.475 375.036C150.841 375.245 154.107 375.564 157.711 375.943C159.507 376.138 161.218 376.323 162.789 376.494C163.565 376.584 164.306 376.668 165.005 376.748C165.701 376.83 166.366 376.945 166.936 377.187C168.111 377.653 168.671 378.677 168.702 379.356C168.739 379.699 168.689 379.963 168.656 380.136C168.611 380.308 168.58 380.395 168.565 380.392Z" fill="#6F4439"/>
<g opacity="0.3">
<path d="M137.849 318.891L144.114 291.561V283L141.764 281.502L147.27 225.434L136.896 288.113L138.147 288.006C139.574 287.884 141.348 287.552 141.004 288.942L139.05 293.226L136.884 304.576L137.849 318.891Z" fill="black"/>
</g>
<path d="M196.619 186.996C194.642 189.066 194.058 192.043 195.696 194.389C196.265 195.203 197.202 195.775 198.183 195.927C199.383 196.113 200.609 196.014 201.547 195.124C202.428 194.289 203.259 193.381 203.654 192.234C201.716 190.7 198.556 188.531 196.619 186.996Z" fill="#6F4439"/>
<path d="M200.911 195.614C200.92 195.633 200.645 195.802 200.081 195.919C199.524 196.027 198.654 196.068 197.675 195.701C196.699 195.359 195.65 194.523 195.058 193.264C194.445 192.024 194.358 190.376 194.953 188.898C195.245 188.144 195.672 187.47 196.171 186.902L196.301 186.754L196.458 186.87C198.485 188.371 200.25 189.701 201.5 190.665C202.75 191.629 203.485 192.229 203.454 192.27C203.423 192.312 202.631 191.791 201.337 190.887C200.042 189.983 198.246 188.698 196.206 187.212L196.492 187.18C196.028 187.718 195.631 188.351 195.359 189.054C194.806 190.435 194.875 191.936 195.421 193.094C195.952 194.266 196.888 195.057 197.788 195.415C198.69 195.793 199.514 195.804 200.057 195.751C200.604 195.691 200.897 195.579 200.911 195.614Z" fill="#263238"/>
</svg>
