<svg width="23" height="23" viewBox="0 0 23 23" fill="none" xmlns="http://www.w3.org/2000/svg">
<mask id="mask0_1_124" style="mask-type:alpha" maskUnits="userSpaceOnUse" x="-1" y="-1" width="25" height="25">
<rect x="-0.713393" y="-0.712834" width="24.4247" height="24.4247" fill="#D9D9D9"/>
</mask>
<g mask="url(#mask0_1_124)">
<path d="M8.52319 15.8252L11.5 14.0187L14.4767 15.8252L13.688 12.4413L16.334 10.1515L12.8484 9.87164L11.5 6.6659L10.1515 9.87164L6.6659 10.1515L9.31191 12.4413L8.52319 15.8252ZM11.5 22.9999L8.09067 19.6415H3.35839V14.9092L0 11.5L3.35839 8.09067V3.35839H8.09067L11.5 0L14.9092 3.35839H19.6415V8.09067L22.9999 11.5L19.6415 14.9092V19.6415H14.9092L11.5 22.9999ZM11.5 20.1504L14.0442 17.6061H17.6061V14.0442L20.1504 11.5L17.6061 8.95571V5.39378H14.0442L11.5 2.84955L8.95571 5.39378H5.39378V8.95571L2.84955 11.5L5.39378 14.0442V17.6061H8.95571L11.5 20.1504Z" fill="#BB5302"/>
</g>
</svg>
