<svg width="23" height="23" viewBox="0 0 23 23" fill="none" xmlns="http://www.w3.org/2000/svg">
<mask id="mask0_1_375" style="mask-type:alpha" maskUnits="userSpaceOnUse" x="-1" y="-1" width="25" height="25">
<rect x="-0.713396" y="-0.712837" width="24.4248" height="24.4248" fill="#D9D9D9"/>
</mask>
<g mask="url(#mask0_1_375)">
<path d="M8.52324 15.8252L11.5 14.0188L14.4768 15.8252L13.6881 12.4414L16.3341 10.1516L12.8485 9.87169L11.5 6.66594L10.1516 9.87169L6.66594 10.1516L9.31196 12.4414L8.52324 15.8252ZM11.5 23L8.09072 19.6416H3.35841V14.9093L0 11.5L3.35841 8.09072V3.35841H8.09072L11.5 0L14.9093 3.35841H19.6416V8.09072L23 11.5L19.6416 14.9093V19.6416H14.9093L11.5 23ZM11.5 20.1505L14.0443 17.6062H17.6062V14.0443L20.1505 11.5L17.6062 8.95576V5.39381H14.0443L11.5 2.84956L8.95576 5.39381H5.39381V8.95576L2.84956 11.5L5.39381 14.0443V17.6062H8.95576L11.5 20.1505Z" fill="#992E9D"/>
</g>
</svg>
